<svg width="109" height="30" viewBox="0 0 109 30" fill="currentColor" xmlns="http://www.w3.org/2000/svg">
  <title>Slack logo</title>
  <g clipPath="url(#clip0__4jX6jcnz)">
    <path d="M35.0325 23.1098L36.3691 19.9077C37.8128 21.0207 39.7363 21.5993 41.6341 21.5993C43.0351 21.5993 43.9219 21.0428 43.9219 20.1992C43.9004 17.8408 35.5294 19.6869 35.4651 13.773C35.4437 10.7698 38.0313 8.45546 41.6984 8.45546C43.879 8.45546 46.0553 9.01195 47.6104 10.2796L46.3594 13.5478C44.9371 12.6115 43.1679 11.9446 41.4842 11.9446C40.3404 11.9446 39.5864 12.5011 39.5864 13.2122C39.6078 15.5265 48.0431 14.2589 48.1288 19.9077C48.1288 22.9773 45.6055 25.137 41.9812 25.137C39.3251 25.1326 36.8875 24.4878 35.0325 23.1098ZM86.3599 18.7506C85.691 19.9519 84.4401 20.7734 82.9927 20.7734C80.8549 20.7734 79.1322 18.9935 79.1322 16.794C79.1322 14.5946 80.8589 12.8147 82.9927 12.8147C84.436 12.8147 85.691 13.6362 86.3599 14.8375L90.048 12.7264C88.6686 10.1912 86.0126 8.45546 82.9927 8.45546C78.5239 8.45546 74.8997 12.1919 74.8997 16.7985C74.8997 21.405 78.5239 25.1414 82.9927 25.1414C86.0342 25.1414 88.6686 23.4278 90.048 20.8706L86.3599 18.7506ZM49.9837 1.53467H54.602V24.8235H49.9837V1.53467ZM91.8601 1.53467V24.8235H96.4782V17.8363L101.958 24.8235H107.87L100.9 16.5246L107.352 8.78229H101.697L96.4742 15.2085V1.53467H91.8601Z"></path>
    <path d="M68.3237 18.7948C67.6556 19.93 66.2761 20.7735 64.721 20.7735C62.5833 20.7735 60.8611 18.9936 60.8611 16.7941C60.8611 14.5947 62.5876 12.8148 64.721 12.8148C66.2761 12.8148 67.6556 13.7025 68.3237 14.8597V18.7948ZM68.3237 8.78681V10.6771C67.5699 9.36537 65.6935 8.45117 63.7271 8.45117C59.6701 8.45117 56.4785 12.1434 56.4785 16.772C56.4785 21.4006 59.6701 25.1371 63.7271 25.1371C65.6892 25.1371 67.5656 24.2273 68.3237 22.9112V24.8015H72.9418V8.78681H68.3237Z"></path>
    <path d="M6.48807 18.7727C6.48807 20.398 5.2157 21.7098 3.63918 21.7098C2.06265 21.7098 0.790283 20.3936 0.790283 18.7727C0.790283 17.1518 2.06265 15.8357 3.63918 15.8357H6.48807V18.7727ZM7.91036 18.7727C7.91036 17.1474 9.18274 15.8357 10.7593 15.8357C12.3358 15.8357 13.6082 17.1474 13.6082 18.7727V26.1131C13.6082 27.7384 12.3358 29.0501 10.7593 29.0501C9.18274 29.0501 7.91036 27.7384 7.91036 26.1131V18.7727Z"></path>
    <path d="M10.7603 6.98542C9.18377 6.98542 7.91139 5.67369 7.91139 4.04837C7.91139 2.42306 9.18377 1.11133 10.7603 1.11133C12.3368 1.11133 13.6092 2.42306 13.6092 4.04837V6.98542H10.7603ZM10.7603 8.47384C12.3368 8.47384 13.6092 9.78552 13.6092 11.4108C13.6092 13.0362 12.3368 14.3479 10.7603 14.3479H3.61879C2.04226 14.3479 0.769897 13.0318 0.769897 11.4108C0.769897 9.78996 2.04226 8.47384 3.61879 8.47384H10.7603Z"></path>
    <path d="M22.172 11.4106C22.172 9.78533 23.4443 8.47358 25.0208 8.47358C26.5973 8.47358 27.8697 9.78533 27.8697 11.4106C27.8697 13.0359 26.5973 14.3477 25.0208 14.3477H22.172V11.4106ZM20.7497 11.4106C20.7497 13.0359 19.4773 14.3477 17.9007 14.3477C16.3242 14.3477 15.0519 13.0359 15.0519 11.4106V4.04813C15.0519 2.42282 16.3242 1.11108 17.9007 1.11108C19.4773 1.11108 20.7497 2.42282 20.7497 4.04813V11.4106Z"></path>
    <path d="M17.9007 23.1761C19.4773 23.1761 20.7497 24.4878 20.7497 26.1131C20.7497 27.7384 19.4773 29.0501 17.9007 29.0501C16.3242 29.0501 15.0519 27.7384 15.0519 26.1131V23.1761H17.9007ZM17.9007 21.7098C16.3242 21.7098 15.0519 20.398 15.0519 18.7727C15.0519 17.1474 16.3242 15.8357 17.9007 15.8357H25.0423C26.6188 15.8357 27.8911 17.1474 27.8911 18.7727C27.8911 20.398 26.6188 21.7098 25.0423 21.7098H17.9007Z"></path>
  </g>
  <defs>
    <clipPath id="clip0__4jX6jcnz">
      <rect width="107.664" height="28.2618" fill="currentColor" transform="translate(0.427979 0.910889)"></rect>
    </clipPath>
  </defs>
</svg>