<svg className="max-w-full max-h-fit h-auto" height="48" viewBox="0 0 90 48" fill="none" xmlns="http://www.w3.org/2000/svg">
  <title>Affirm</title>
  <g>
    <path d="M5.77017 32.8774C4.68185 32.8774 4.12742 32.3415 4.12742 31.4605C4.12742 29.8178 5.95909 29.2654 9.30003 28.9102C9.30003 31.0991 7.8195 32.8774 5.75991 32.8774H5.77017ZM7.20758 20.5671C4.81943 20.5671 2.07399 21.6903 0.583193 22.8792L1.94462 25.754C3.13972 24.6596 5.072 23.7232 6.81537 23.7232C8.47249 23.7232 9.38833 24.2776 9.38833 25.3947C9.38833 26.1442 8.78256 26.5241 7.63675 26.674C3.35328 27.2284 -0.00408936 28.4112 -0.00408936 31.7111C-0.00408936 34.3271 1.85838 35.9103 4.7681 35.9103C6.84617 35.9103 8.69426 34.7563 9.57314 33.2409V35.4996H13.4459V26.0354C13.4459 22.1338 10.7374 20.5588 7.20963 20.5588L7.20758 20.5671Z" fill="white"/>
    <path d="M46.0771 20.9922V35.4812H50.2209V28.4995C50.2209 25.1832 52.2291 24.2078 53.6275 24.2078C54.2571 24.2029 54.8739 24.3852 55.3997 24.7315L56.1574 20.9018C55.5702 20.6668 54.9416 20.5529 54.3093 20.5671C52.1799 20.5671 50.841 21.5096 49.958 23.4275V20.9922H46.0771Z" fill="white"/>
    <path d="M75.3611 20.5669C73.1701 20.5669 71.5314 21.8606 70.6793 23.109C69.8887 21.4971 68.2151 20.5669 66.2028 20.5669C64.0138 20.5669 62.4963 21.7825 61.7961 23.183V20.992H57.8001V35.481H61.9481V28.0209C61.9481 25.3514 63.3505 24.0598 64.6586 24.0598C65.8434 24.0598 66.9317 24.8257 66.9317 26.8032V35.481H71.0715V28.0209C71.0715 25.3124 72.4391 24.0598 73.8087 24.0598C74.9052 24.0598 76.0675 24.8565 76.0675 26.7744V35.481H80.2072V25.4643C80.2072 22.2096 78.0162 20.5669 75.3693 20.5669" fill="white"/>
    <path d="M35.9926 20.992H32.239V19.5197C32.239 17.6018 33.3334 17.0555 34.276 17.0555C34.9195 17.0639 35.5523 17.2221 36.1241 17.5176L37.4013 14.5955C37.4013 14.5955 36.1056 13.7495 33.7503 13.7495C31.1034 13.7495 28.091 15.2424 28.091 19.9262V20.992H21.8178V19.5197C21.8178 17.6018 22.9102 17.0555 23.8548 17.0555C24.4994 17.0555 25.1341 17.2142 25.7029 17.5176L26.9801 14.5955C26.2183 14.1499 24.9924 13.7495 23.3312 13.7495C20.6843 13.7495 17.6719 15.2424 17.6719 19.9262V20.992H15.2735V24.1871H17.678V35.481H21.8178V24.1871H28.0992V35.481H32.239V24.1871H35.9926V20.992Z" fill="white"/>
    <path d="M42.6006 20.9922H38.465V35.4751H42.6006V20.9922Z" fill="white"/>
    <path d="M38.6169 18.5301H42.6684C45.0319 11.0987 53.0505 4.5667 62.5867 4.5667C74.1845 4.5667 84.2073 13.3965 84.2073 27.1422C84.2426 29.9637 83.855 32.7745 83.0574 35.4812H86.9897L87.0288 35.3456C87.6914 32.6661 88.0183 29.9147 88.0021 27.1545C88.0021 11.8256 76.8314 0.79248 62.5949 0.79248C51.4119 0.79248 41.4445 8.55447 38.619 18.5342L38.6169 18.5301Z" fill="white"/>
  </g>
  <defs>
    <clipPath id="clip0_41_1076">
    <rect width="88" height="35.1138" fill="white" transform="translate(0 0.78833)"/>
    </clipPath>
  </defs>
</svg>