<svg className="max-w-full h-auto button-box-shadow rounded-lg border-solid border border-gray-700" viewBox="0 0 571 308" fill="none" xmlns="http://www.w3.org/2000/svg">
  <rect y="0.331055" width="571" height="308" rx="6" fill="url(#paint0_linear_101_119)" />
  <path d="M35.3943 58.375C39.3829 58.375 41.748 55.9077 41.748 51.8168C41.748 47.7386 39.3829 45.2841 35.4838 45.2841H30.9582V58.375H35.3943ZM33.3296 56.3232V47.3359H35.3495C38.0086 47.3359 39.3957 48.8189 39.3957 51.8168C39.3957 54.8274 38.0086 56.3232 35.2792 56.3232H33.3296ZM48.2455 58.5668C50.5338 58.5668 52.1063 57.4482 52.5154 55.7415L50.3548 55.4986C50.0416 56.3295 49.2746 56.7642 48.2774 56.7642C46.7817 56.7642 45.7909 55.7798 45.7718 54.0987H52.6112V53.3892C52.6112 49.9439 50.5402 48.429 48.124 48.429C45.3115 48.429 43.477 50.4936 43.477 53.5234C43.477 56.6044 45.286 58.5668 48.2455 58.5668ZM45.7781 52.5391C45.8485 51.2862 46.7753 50.2315 48.156 50.2315C49.4855 50.2315 50.3804 51.2031 50.3932 52.5391H45.7781ZM54.5688 62.0568H56.8827V56.8281H56.9786C57.343 57.544 58.1036 58.5476 59.7911 58.5476C62.105 58.5476 63.8373 56.7131 63.8373 53.4787C63.8373 50.206 62.0539 48.429 59.7847 48.429C58.0525 48.429 57.3302 49.4709 56.9786 50.1804H56.8444V48.5568H54.5688V62.0568ZM56.838 53.4659C56.838 51.5611 57.6562 50.3274 59.1455 50.3274C60.686 50.3274 61.4786 51.6378 61.4786 53.4659C61.4786 55.3068 60.6732 56.6491 59.1455 56.6491C57.6689 56.6491 56.838 55.3707 56.838 53.4659ZM68.1327 45.2841H65.8188V58.375H68.1327V45.2841ZM74.7948 58.5668C77.6713 58.5668 79.4994 56.5405 79.4994 53.5043C79.4994 50.4616 77.6713 48.429 74.7948 48.429C71.9184 48.429 70.0903 50.4616 70.0903 53.5043C70.0903 56.5405 71.9184 58.5668 74.7948 58.5668ZM74.8076 56.7131C73.216 56.7131 72.4362 55.294 72.4362 53.4979C72.4362 51.7017 73.216 50.2635 74.8076 50.2635C76.3737 50.2635 77.1535 51.7017 77.1535 53.4979C77.1535 55.294 76.3737 56.7131 74.8076 56.7131ZM82.5676 62.0568C84.3701 62.0568 85.412 61.13 85.9681 59.5639L89.912 48.5696L87.4383 48.5568L85.1691 55.9716H85.0669L82.8041 48.5568H80.3495L83.9099 58.5795L83.7117 59.1101C83.2835 60.2287 82.6059 60.3054 81.596 60.0114L81.059 61.8139C81.3722 61.9418 81.9347 62.0568 82.5676 62.0568ZM104.849 62.0568V48.5568H102.573V50.1804H102.439C102.087 49.4709 101.365 48.429 99.6327 48.429C97.3635 48.429 95.5802 50.206 95.5802 53.4787C95.5802 56.7131 97.3124 58.5476 99.6263 58.5476C101.314 58.5476 102.074 57.544 102.439 56.8281H102.535V62.0568H104.849ZM102.579 53.4659C102.579 55.3707 101.748 56.6491 100.272 56.6491C98.7442 56.6491 97.9388 55.3068 97.9388 53.4659C97.9388 51.6378 98.7314 50.3274 100.272 50.3274C101.761 50.3274 102.579 51.5611 102.579 53.4659ZM113.491 54.2457C113.491 55.7415 112.423 56.483 111.4 56.483C110.288 56.483 109.547 55.6967 109.547 54.4503V48.5568H107.233V54.8082C107.233 57.1669 108.575 58.5028 110.506 58.5028C111.976 58.5028 113.011 57.7294 113.459 56.63H113.561V58.375H115.805V48.5568H113.491V54.2457ZM122.531 58.5668C124.819 58.5668 126.391 57.4482 126.801 55.7415L124.64 55.4986C124.327 56.3295 123.56 56.7642 122.563 56.7642C121.067 56.7642 120.076 55.7798 120.057 54.0987H126.896V53.3892C126.896 49.9439 124.825 48.429 122.409 48.429C119.597 48.429 117.762 50.4936 117.762 53.5234C117.762 56.6044 119.571 58.5668 122.531 58.5668ZM120.063 52.5391C120.134 51.2862 121.06 50.2315 122.441 50.2315C123.771 50.2315 124.666 51.2031 124.678 52.5391H120.063ZM135.112 54.2457C135.112 55.7415 134.044 56.483 133.022 56.483C131.909 56.483 131.168 55.6967 131.168 54.4503V48.5568H128.854V54.8082C128.854 57.1669 130.196 58.5028 132.127 58.5028C133.597 58.5028 134.632 57.7294 135.08 56.63H135.182V58.375H137.426V48.5568H135.112V54.2457ZM144.152 58.5668C146.44 58.5668 148.013 57.4482 148.422 55.7415L146.261 55.4986C145.948 56.3295 145.181 56.7642 144.184 56.7642C142.688 56.7642 141.697 55.7798 141.678 54.0987H148.517V53.3892C148.517 49.9439 146.446 48.429 144.03 48.429C141.218 48.429 139.383 50.4936 139.383 53.5234C139.383 56.6044 141.192 58.5668 144.152 58.5668ZM141.684 52.5391C141.755 51.2862 142.682 50.2315 144.062 50.2315C145.392 50.2315 146.287 51.2031 146.299 52.5391H141.684ZM159.913 48.5568H157.874V47.7834C157.874 47.0163 158.193 46.5881 159.056 46.5881C159.421 46.5881 159.728 46.6712 159.919 46.7287L160.386 44.9389C160.085 44.8366 159.427 44.6705 158.628 44.6705C156.921 44.6705 155.56 45.6484 155.56 47.63V48.5568H154.109V50.3466H155.56V58.375H157.874V50.3466H159.913V48.5568ZM165.639 58.5668C168.515 58.5668 170.343 56.5405 170.343 53.5043C170.343 50.4616 168.515 48.429 165.639 48.429C162.762 48.429 160.934 50.4616 160.934 53.5043C160.934 56.5405 162.762 58.5668 165.639 58.5668ZM165.651 56.7131C164.06 56.7131 163.28 55.294 163.28 53.4979C163.28 51.7017 164.06 50.2635 165.651 50.2635C167.217 50.2635 167.997 51.7017 167.997 53.4979C167.997 55.294 167.217 56.7131 165.651 56.7131ZM172.307 58.375H174.621V52.603C174.621 51.3565 175.561 50.4744 176.833 50.4744C177.223 50.4744 177.708 50.5447 177.907 50.6087V48.4801C177.696 48.4418 177.331 48.4162 177.076 48.4162C175.951 48.4162 175.011 49.0554 174.653 50.1932H174.551V48.5568H172.307V58.375ZM188.882 48.5568H186.843V47.7834C186.843 47.0163 187.162 46.5881 188.025 46.5881C188.389 46.5881 188.696 46.6712 188.888 46.7287L189.355 44.9389C189.054 44.8366 188.396 44.6705 187.597 44.6705C185.89 44.6705 184.529 45.6484 184.529 47.63V48.5568H183.078V50.3466H184.529V58.375H186.843V50.3466H188.882V48.5568ZM193.008 45.2841H190.694V58.375H193.008V45.2841ZM201.645 54.2457C201.645 55.7415 200.578 56.483 199.555 56.483C198.443 56.483 197.701 55.6967 197.701 54.4503V48.5568H195.387V54.8082C195.387 57.1669 196.729 58.5028 198.66 58.5028C200.13 58.5028 201.166 57.7294 201.613 56.63H201.715V58.375H203.959V48.5568H201.645V54.2457ZM208.23 48.5568H205.776L208.691 53.4659L205.699 58.375H208.154L210.212 54.8402L212.289 58.375H214.725L211.714 53.4659L214.674 48.5568H212.225L210.212 52.1811L208.23 48.5568ZM222.01 51.9702H216.117V53.875H222.01V51.9702ZM228.087 58.5476C229.775 58.5476 230.535 57.544 230.9 56.8281H231.04V58.375H233.316V45.2841H230.996V50.1804H230.9C230.548 49.4709 229.826 48.429 228.094 48.429C225.824 48.429 224.041 50.206 224.041 53.4787C224.041 56.7131 225.773 58.5476 228.087 58.5476ZM228.733 56.6491C227.205 56.6491 226.4 55.3068 226.4 53.4659C226.4 51.6378 227.192 50.3274 228.733 50.3274C230.222 50.3274 231.04 51.5611 231.04 53.4659C231.04 55.3707 230.209 56.6491 228.733 56.6491ZM235.884 58.375H238.16V56.8281H238.294C238.658 57.544 239.419 58.5476 241.106 58.5476C243.42 58.5476 245.152 56.7131 245.152 53.4787C245.152 50.206 243.369 48.429 241.1 48.429C239.368 48.429 238.645 49.4709 238.294 50.1804H238.198V45.2841H235.884V58.375ZM238.153 53.4659C238.153 51.5611 238.971 50.3274 240.461 50.3274C242.001 50.3274 242.794 51.6378 242.794 53.4659C242.794 55.3068 241.988 56.6491 240.461 56.6491C238.984 56.6491 238.153 55.3707 238.153 53.4659Z" fill="#FAFBFC" />
  <path d="M35.8011 79.4886H36.9943C36.9396 77.9524 35.5227 76.804 33.554 76.804C31.6051 76.804 30.0739 77.9375 30.0739 79.6477C30.0739 81.0199 31.0682 81.8352 32.6591 82.2926L33.9119 82.6506C34.9858 82.9489 35.9403 83.3267 35.9403 84.3409C35.9403 85.4545 34.8665 86.1903 33.4545 86.1903C32.2415 86.1903 31.1676 85.6534 31.0682 84.5H29.7955C29.9148 86.1705 31.267 87.304 33.4545 87.304C35.8011 87.304 37.1335 86.0114 37.1335 84.3608C37.1335 82.4517 35.3239 81.8352 34.2699 81.5568L33.2358 81.2784C32.4801 81.0795 31.267 80.6818 31.267 79.5881C31.267 78.6136 32.1619 77.8977 33.5142 77.8977C34.7472 77.8977 35.6818 78.4844 35.8011 79.4886ZM41.2488 87.304C42.5811 87.304 43.2772 86.5881 43.5158 86.0909H43.5755V87.125H44.7488V82.0938C44.7488 79.6676 42.8993 79.3892 41.9249 79.3892C40.7715 79.3892 39.459 79.7869 38.8624 81.179L39.976 81.5767C40.2346 81.0199 40.8461 80.4233 41.9647 80.4233C43.0435 80.4233 43.5755 80.995 43.5755 81.9744V82.0142C43.5755 82.581 42.9988 82.5312 41.6067 82.7102C40.1898 82.8942 38.6436 83.2074 38.6436 84.9574C38.6436 86.4489 39.7971 87.304 41.2488 87.304ZM41.4277 86.25C40.4931 86.25 39.8169 85.8324 39.8169 85.017C39.8169 84.1222 40.6323 83.8438 41.5471 83.7244C42.0442 83.6648 43.3766 83.5256 43.5755 83.2869V84.3608C43.5755 85.3153 42.8198 86.25 41.4277 86.25ZM46.8903 87.125H48.0636V82.2926C48.0636 81.2585 48.8789 80.5028 49.9925 80.5028C50.3058 80.5028 50.6289 80.5625 50.7085 80.5824V79.3892C50.5742 79.3793 50.266 79.3693 50.092 79.3693C49.1772 79.3693 48.3817 79.8864 48.1033 80.642H48.0238V79.4886H46.8903V87.125ZM54.3464 87.304C55.6788 87.304 56.3748 86.5881 56.6135 86.0909H56.6731V87.125H57.8464V82.0938C57.8464 79.6676 55.997 79.3892 55.0225 79.3892C53.8691 79.3892 52.5566 79.7869 51.96 81.179L53.0737 81.5767C53.3322 81.0199 53.9437 80.4233 55.0623 80.4233C56.1412 80.4233 56.6731 80.995 56.6731 81.9744V82.0142C56.6731 82.581 56.0964 82.5312 54.7044 82.7102C53.2875 82.8942 51.7413 83.2074 51.7413 84.9574C51.7413 86.4489 52.8947 87.304 54.3464 87.304ZM54.5254 86.25C53.5907 86.25 52.9146 85.8324 52.9146 85.017C52.9146 84.1222 53.7299 83.8438 54.6447 83.7244C55.1419 83.6648 56.4743 83.5256 56.6731 83.2869V84.3608C56.6731 85.3153 55.9174 86.25 54.5254 86.25ZM61.1612 82.5312C61.1612 81.1989 62.0114 80.4432 63.1697 80.4432C64.2734 80.4432 64.9396 81.1392 64.9396 82.3523V87.125H66.1129V82.2727C66.1129 80.3089 65.0689 79.3892 63.5078 79.3892C62.3047 79.3892 61.6186 79.8913 61.2607 80.6818H61.1612V76.9432H59.9879V87.125H61.1612V82.5312ZM72.1969 87.125H73.3702V79.4886H72.1969V87.125ZM72.7935 78.2159C73.2509 78.2159 73.6287 77.858 73.6287 77.4205C73.6287 76.983 73.2509 76.625 72.7935 76.625C72.3361 76.625 71.9583 76.983 71.9583 77.4205C71.9583 77.858 72.3361 78.2159 72.7935 78.2159ZM80.9283 81.1989C80.5604 80.1151 79.7351 79.3892 78.2237 79.3892C76.6129 79.3892 75.4197 80.304 75.4197 81.5966C75.4197 82.6506 76.0462 83.3565 77.4482 83.6847L78.7209 83.983C79.4915 84.1619 79.8544 84.5298 79.8544 85.0568C79.8544 85.7131 79.1584 86.25 78.0646 86.25C77.1051 86.25 76.5036 85.8374 76.2947 85.017L75.1811 85.2955C75.4545 86.593 76.5234 87.2841 78.0845 87.2841C79.8594 87.2841 81.0675 86.3146 81.0675 84.9972C81.0675 83.9332 80.4013 83.2621 79.0391 82.929L77.9055 82.6506C77.0007 82.4268 76.593 82.1236 76.593 81.5369C76.593 80.8807 77.2891 80.4034 78.2237 80.4034C79.2479 80.4034 79.6705 80.9702 79.8743 81.4972L80.9283 81.1989ZM89.6547 87.2841C91.1262 87.2841 91.6234 86.3693 91.8819 85.9517H92.0211V87.125H93.1547V76.9432H91.9814V80.7017H91.8819C91.6234 80.304 91.166 79.3892 89.6745 79.3892C87.7456 79.3892 86.4132 80.9205 86.4132 83.3267C86.4132 85.7528 87.7456 87.2841 89.6547 87.2841ZM89.8137 86.2301C88.3422 86.2301 87.5865 84.9375 87.5865 83.3068C87.5865 81.696 88.3223 80.4432 89.8137 80.4432C91.2456 80.4432 92.0012 81.5966 92.0012 83.3068C92.0012 85.0369 91.2257 86.2301 89.8137 86.2301ZM98.6681 87.2841C100.219 87.2841 101.353 86.5085 101.711 85.3551L100.577 85.0369C100.279 85.8324 99.5879 86.2301 98.6681 86.2301C97.291 86.2301 96.3414 85.3402 96.2868 83.7045H101.83V83.2074C101.83 80.3636 100.14 79.3892 98.5488 79.3892C96.4806 79.3892 95.1085 81.0199 95.1085 83.3665C95.1085 85.7131 96.4608 87.2841 98.6681 87.2841ZM96.2868 82.6903C96.3663 81.5021 97.2065 80.4432 98.5488 80.4432C99.8216 80.4432 100.637 81.3977 100.637 82.6903H96.2868ZM103.615 89.9886H104.788V85.9517H104.888C105.146 86.3693 105.643 87.2841 107.115 87.2841C109.024 87.2841 110.356 85.7528 110.356 83.3267C110.356 80.9205 109.024 79.3892 107.095 79.3892C105.604 79.3892 105.146 80.304 104.888 80.7017H104.748V79.4886H103.615V89.9886ZM104.768 83.3068C104.768 81.5966 105.524 80.4432 106.956 80.4432C108.447 80.4432 109.183 81.696 109.183 83.3068C109.183 84.9375 108.427 86.2301 106.956 86.2301C105.544 86.2301 104.768 85.0369 104.768 83.3068ZM113.319 76.9432H112.146V87.125H113.319V76.9432ZM118.571 87.2841C120.639 87.2841 122.031 85.7131 122.031 83.3466C122.031 80.9602 120.639 79.3892 118.571 79.3892C116.502 79.3892 115.11 80.9602 115.11 83.3466C115.11 85.7131 116.502 87.2841 118.571 87.2841ZM118.571 86.2301C117 86.2301 116.284 84.8778 116.284 83.3466C116.284 81.8153 117 80.4432 118.571 80.4432C120.142 80.4432 120.858 81.8153 120.858 83.3466C120.858 84.8778 120.142 86.2301 118.571 86.2301ZM124.304 89.9886C125.363 89.9886 126.109 89.4268 126.551 88.2386L129.803 79.5085L128.52 79.4886L126.412 85.5739H126.333L124.225 79.4886H122.952L125.776 87.1648L125.557 87.7614C125.129 88.9247 124.602 89.0341 123.747 88.8153L123.449 89.8494C123.568 89.9091 123.906 89.9886 124.304 89.9886ZM131.355 87.125H132.528V79.4886H131.355V87.125ZM131.952 78.2159C132.409 78.2159 132.787 77.858 132.787 77.4205C132.787 76.983 132.409 76.625 131.952 76.625C131.494 76.625 131.116 76.983 131.116 77.4205C131.116 77.858 131.494 78.2159 131.952 78.2159ZM135.851 82.5312C135.851 81.1989 136.676 80.4432 137.8 80.4432C138.888 80.4432 139.55 81.1541 139.55 82.3523V87.125H140.723V82.2727C140.723 80.3239 139.684 79.3892 138.138 79.3892C136.984 79.3892 136.268 79.9062 135.91 80.6818H135.811V79.4886H134.677V87.125H135.851V82.5312ZM145.949 90.1477C147.779 90.1477 149.25 89.3125 149.25 87.3438V79.4886H148.117V80.7017H147.998C147.739 80.304 147.262 79.3892 145.77 79.3892C143.841 79.3892 142.509 80.9205 142.509 83.267C142.509 85.6534 143.901 87.0057 145.75 87.0057C147.242 87.0057 147.719 86.1307 147.978 85.7131H148.077V87.2642C148.077 88.5369 147.182 89.1136 145.949 89.1136C144.562 89.1136 144.075 88.3828 143.762 87.9602L142.827 88.6165C143.304 89.4169 144.244 90.1477 145.949 90.1477ZM145.909 85.9517C144.438 85.9517 143.682 84.8381 143.682 83.2472C143.682 81.696 144.418 80.4432 145.909 80.4432C147.341 80.4432 148.097 81.5966 148.097 83.2472C148.097 84.9375 147.321 85.9517 145.909 85.9517ZM158.657 79.4886H157.026V77.6591H155.853V79.4886H154.699V80.483H155.853V85.2557C155.853 86.5881 156.926 87.2244 157.921 87.2244C158.358 87.2244 158.637 87.1449 158.796 87.0852L158.557 86.0312C158.458 86.0511 158.299 86.0909 158.04 86.0909C157.523 86.0909 157.026 85.9318 157.026 84.9375V80.483H158.657V79.4886ZM161.759 82.5312C161.759 81.1989 162.609 80.4432 163.767 80.4432C164.871 80.4432 165.537 81.1392 165.537 82.3523V87.125H166.711V82.2727C166.711 80.3089 165.667 79.3892 164.105 79.3892C162.902 79.3892 162.216 79.8913 161.858 80.6818H161.759V76.9432H160.586V87.125H161.759V82.5312ZM172.059 87.2841C173.61 87.2841 174.743 86.5085 175.101 85.3551L173.968 85.0369C173.67 85.8324 172.979 86.2301 172.059 86.2301C170.682 86.2301 169.732 85.3402 169.677 83.7045H175.221V83.2074C175.221 80.3636 173.53 79.3892 171.939 79.3892C169.871 79.3892 168.499 81.0199 168.499 83.3665C168.499 85.7131 169.851 87.2841 172.059 87.2841ZM169.677 82.6903C169.757 81.5021 170.597 80.4432 171.939 80.4432C173.212 80.4432 174.028 81.3977 174.028 82.6903H169.677ZM184.344 79.4886H182.633V78.7131C182.633 77.9574 182.952 77.5597 183.727 77.5597C184.065 77.5597 184.264 77.6392 184.383 77.679L184.721 76.6648C184.542 76.5852 184.184 76.4659 183.608 76.4659C182.514 76.4659 181.46 77.1222 181.46 78.4347V79.4886H180.227V80.483H181.46V87.125H182.633V80.483H184.344V79.4886ZM188.776 87.2841C190.844 87.2841 192.236 85.7131 192.236 83.3466C192.236 80.9602 190.844 79.3892 188.776 79.3892C186.708 79.3892 185.316 80.9602 185.316 83.3466C185.316 85.7131 186.708 87.2841 188.776 87.2841ZM188.776 86.2301C187.205 86.2301 186.489 84.8778 186.489 83.3466C186.489 81.8153 187.205 80.4432 188.776 80.4432C190.347 80.4432 191.063 81.8153 191.063 83.3466C191.063 84.8778 190.347 86.2301 188.776 86.2301ZM195.2 76.9432H194.027V87.125H195.2V76.9432ZM198.523 76.9432H197.349V87.125H198.523V76.9432ZM203.774 87.2841C205.842 87.2841 207.234 85.7131 207.234 83.3466C207.234 80.9602 205.842 79.3892 203.774 79.3892C201.706 79.3892 200.314 80.9602 200.314 83.3466C200.314 85.7131 201.706 87.2841 203.774 87.2841ZM203.774 86.2301C202.203 86.2301 201.487 84.8778 201.487 83.3466C201.487 81.8153 202.203 80.4432 203.774 80.4432C205.345 80.4432 206.061 81.8153 206.061 83.3466C206.061 84.8778 205.345 86.2301 203.774 86.2301ZM210.495 87.125H211.649L213.319 81.2585H213.439L215.109 87.125H216.262L218.589 79.4886H217.356L215.706 85.3153H215.626L214.015 79.4886H212.762L211.132 85.3352H211.052L209.402 79.4886H208.169L210.495 87.125ZM220.14 87.125H221.314V79.4886H220.14V87.125ZM220.737 78.2159C221.194 78.2159 221.572 77.858 221.572 77.4205C221.572 76.983 221.194 76.625 220.737 76.625C220.279 76.625 219.902 76.983 219.902 77.4205C219.902 77.858 220.279 78.2159 220.737 78.2159ZM224.636 82.5312C224.636 81.1989 225.461 80.4432 226.585 80.4432C227.673 80.4432 228.335 81.1541 228.335 82.3523V87.125H229.508V82.2727C229.508 80.3239 228.469 79.3892 226.923 79.3892C225.769 79.3892 225.053 79.9062 224.695 80.6818H224.596V79.4886H223.463V87.125H224.636V82.5312ZM234.734 90.1477C236.564 90.1477 238.036 89.3125 238.036 87.3438V79.4886H236.902V80.7017H236.783C236.524 80.304 236.047 79.3892 234.555 79.3892C232.626 79.3892 231.294 80.9205 231.294 83.267C231.294 85.6534 232.686 87.0057 234.536 87.0057C236.027 87.0057 236.504 86.1307 236.763 85.7131H236.862V87.2642C236.862 88.5369 235.967 89.1136 234.734 89.1136C233.347 89.1136 232.86 88.3828 232.547 87.9602L231.612 88.6165C232.089 89.4169 233.029 90.1477 234.734 90.1477ZM234.695 85.9517C233.223 85.9517 232.467 84.8381 232.467 83.2472C232.467 81.696 233.203 80.4432 234.695 80.4432C236.126 80.4432 236.882 81.5966 236.882 83.2472C236.882 84.9375 236.107 85.9517 234.695 85.9517ZM247.223 87.2841C248.913 87.2841 250.027 86.25 250.226 84.8977H249.053C248.834 85.733 248.138 86.2301 247.223 86.2301C245.831 86.2301 244.936 85.0767 244.936 83.3068C244.936 81.5767 245.851 80.4432 247.223 80.4432C248.257 80.4432 248.874 81.0795 249.053 81.7756H250.226C250.027 80.3438 248.814 79.3892 247.203 79.3892C245.135 79.3892 243.763 81.0199 243.763 83.3466C243.763 85.6335 245.075 87.2841 247.223 87.2841ZM253.114 82.5312C253.114 81.1989 253.964 80.4432 255.123 80.4432C256.227 80.4432 256.893 81.1392 256.893 82.3523V87.125H258.066V82.2727C258.066 80.3089 257.022 79.3892 255.461 79.3892C254.258 79.3892 253.572 79.8913 253.214 80.6818H253.114V76.9432H251.941V87.125H253.114V82.5312ZM262.46 87.304C263.792 87.304 264.488 86.5881 264.727 86.0909H264.786V87.125H265.96V82.0938C265.96 79.6676 264.11 79.3892 263.136 79.3892C261.982 79.3892 260.67 79.7869 260.073 81.179L261.187 81.5767C261.445 81.0199 262.057 80.4233 263.176 80.4233C264.254 80.4233 264.786 80.995 264.786 81.9744V82.0142C264.786 82.581 264.21 82.5312 262.818 82.7102C261.401 82.8942 259.855 83.2074 259.855 84.9574C259.855 86.4489 261.008 87.304 262.46 87.304ZM262.639 86.25C261.704 86.25 261.028 85.8324 261.028 85.017C261.028 84.1222 261.843 83.8438 262.758 83.7244C263.255 83.6648 264.588 83.5256 264.786 83.2869V84.3608C264.786 85.3153 264.031 86.25 262.639 86.25ZM269.275 82.5312C269.275 81.1989 270.1 80.4432 271.223 80.4432C272.312 80.4432 272.973 81.1541 272.973 82.3523V87.125H274.147V82.2727C274.147 80.3239 273.108 79.3892 271.561 79.3892C270.408 79.3892 269.692 79.9062 269.334 80.6818H269.235V79.4886H268.101V87.125H269.275V82.5312ZM279.373 90.1477C281.203 90.1477 282.674 89.3125 282.674 87.3438V79.4886H281.541V80.7017H281.421C281.163 80.304 280.686 79.3892 279.194 79.3892C277.265 79.3892 275.933 80.9205 275.933 83.267C275.933 85.6534 277.325 87.0057 279.174 87.0057C280.666 87.0057 281.143 86.1307 281.401 85.7131H281.501V87.2642C281.501 88.5369 280.606 89.1136 279.373 89.1136C277.986 89.1136 277.499 88.3828 277.186 87.9602L276.251 88.6165C276.728 89.4169 277.668 90.1477 279.373 90.1477ZM279.333 85.9517C277.862 85.9517 277.106 84.8381 277.106 83.2472C277.106 81.696 277.842 80.4432 279.333 80.4432C280.765 80.4432 281.521 81.5966 281.521 83.2472C281.521 84.9375 280.745 85.9517 279.333 85.9517ZM288.024 87.2841C289.575 87.2841 290.708 86.5085 291.066 85.3551L289.933 85.0369C289.634 85.8324 288.943 86.2301 288.024 86.2301C286.646 86.2301 285.697 85.3402 285.642 83.7045H291.186V83.2074C291.186 80.3636 289.495 79.3892 287.904 79.3892C285.836 79.3892 284.464 81.0199 284.464 83.3665C284.464 85.7131 285.816 87.2841 288.024 87.2841ZM285.642 82.6903C285.722 81.5021 286.562 80.4432 287.904 80.4432C289.177 80.4432 289.992 81.3977 289.992 82.6903H285.642ZM298.379 81.1989C298.012 80.1151 297.186 79.3892 295.675 79.3892C294.064 79.3892 292.871 80.304 292.871 81.5966C292.871 82.6506 293.497 83.3565 294.899 83.6847L296.172 83.983C296.943 84.1619 297.306 84.5298 297.306 85.0568C297.306 85.7131 296.61 86.25 295.516 86.25C294.556 86.25 293.955 85.8374 293.746 85.017L292.632 85.2955C292.906 86.593 293.975 87.2841 295.536 87.2841C297.311 87.2841 298.519 86.3146 298.519 84.9972C298.519 83.9332 297.852 83.2621 296.49 82.929L295.357 82.6506C294.452 82.4268 294.044 82.1236 294.044 81.5369C294.044 80.8807 294.74 80.4034 295.675 80.4034C296.699 80.4034 297.122 80.9702 297.325 81.4972L298.379 81.1989ZM301.14 87.2045C301.632 87.2045 302.035 86.8018 302.035 86.3097C302.035 85.8175 301.632 85.4148 301.14 85.4148C300.648 85.4148 300.245 85.8175 300.245 86.3097C300.245 86.8018 300.648 87.2045 301.14 87.2045ZM301.14 81.5369C301.632 81.5369 302.035 81.1342 302.035 80.642C302.035 80.1499 301.632 79.7472 301.14 79.7472C300.648 79.7472 300.245 80.1499 300.245 80.642C300.245 81.1342 300.648 81.5369 301.14 81.5369Z" fill="#B2B5B9" />
  <path d="M484.888 130.625C484.564 128.835 483.132 127.778 481.377 127.778C479.144 127.778 477.525 129.5 477.525 132.261C477.525 135.023 479.144 136.744 481.377 136.744C483.132 136.744 484.564 135.688 484.888 133.898H483.831C483.576 135.108 482.536 135.756 481.377 135.756C479.792 135.756 478.547 134.528 478.547 132.261C478.547 129.994 479.792 128.767 481.377 128.767C482.536 128.767 483.576 129.415 483.831 130.625H484.888ZM489.119 136.761C490.891 136.761 492.085 135.415 492.085 133.386C492.085 131.341 490.891 129.994 489.119 129.994C487.346 129.994 486.153 131.341 486.153 133.386C486.153 135.415 487.346 136.761 489.119 136.761ZM489.119 135.858C487.772 135.858 487.158 134.699 487.158 133.386C487.158 132.074 487.772 130.898 489.119 130.898C490.465 130.898 491.079 132.074 491.079 133.386C491.079 134.699 490.465 135.858 489.119 135.858ZM493.62 136.625H494.625V132.534C494.625 131.575 495.324 130.898 496.108 130.898C496.871 130.898 497.404 131.396 497.404 132.142V136.625H498.426V132.364C498.426 131.52 498.955 130.898 499.875 130.898C500.591 130.898 501.205 131.277 501.205 132.244V136.625H502.211V132.244C502.211 130.706 501.384 129.994 500.216 129.994C499.279 129.994 498.593 130.425 498.256 131.102H498.188C497.864 130.403 497.293 129.994 496.432 129.994C495.58 129.994 494.949 130.403 494.676 131.102H494.591V130.08H493.62V136.625ZM504.049 139.08H505.055V135.619H505.14C505.362 135.977 505.788 136.761 507.049 136.761C508.686 136.761 509.828 135.449 509.828 133.369C509.828 131.307 508.686 129.994 507.032 129.994C505.754 129.994 505.362 130.778 505.14 131.119H505.021V130.08H504.049V139.08ZM505.038 133.352C505.038 131.886 505.686 130.898 506.913 130.898C508.191 130.898 508.822 131.972 508.822 133.352C508.822 134.75 508.174 135.858 506.913 135.858C505.703 135.858 505.038 134.835 505.038 133.352ZM512.368 127.898H511.362V136.625H512.368V127.898ZM516.954 136.761C518.283 136.761 519.255 136.097 519.562 135.108L518.59 134.835C518.335 135.517 517.742 135.858 516.954 135.858C515.773 135.858 514.96 135.095 514.913 133.693H519.664V133.267C519.664 130.83 518.215 129.994 516.852 129.994C515.079 129.994 513.903 131.392 513.903 133.403C513.903 135.415 515.062 136.761 516.954 136.761ZM514.913 132.824C514.981 131.805 515.701 130.898 516.852 130.898C517.942 130.898 518.641 131.716 518.641 132.824H514.913ZM524.04 130.08H522.643V128.511H521.637V130.08H520.648V130.932H521.637V135.023C521.637 136.165 522.558 136.71 523.41 136.71C523.785 136.71 524.023 136.642 524.16 136.591L523.955 135.688C523.87 135.705 523.734 135.739 523.512 135.739C523.069 135.739 522.643 135.602 522.643 134.75V130.932H524.04V130.08ZM528.227 136.761C529.557 136.761 530.528 136.097 530.835 135.108L529.864 134.835C529.608 135.517 529.016 135.858 528.227 135.858C527.047 135.858 526.233 135.095 526.186 133.693H530.938V133.267C530.938 130.83 529.489 129.994 528.125 129.994C526.352 129.994 525.176 131.392 525.176 133.403C525.176 135.415 526.335 136.761 528.227 136.761ZM526.186 132.824C526.254 131.805 526.974 130.898 528.125 130.898C529.216 130.898 529.915 131.716 529.915 132.824H526.186ZM534.939 136.761C536.2 136.761 536.626 135.977 536.848 135.619H536.967V136.625H537.939V127.898H536.933V131.119H536.848C536.626 130.778 536.234 129.994 534.956 129.994C533.303 129.994 532.161 131.307 532.161 133.369C532.161 135.449 533.303 136.761 534.939 136.761ZM535.075 135.858C533.814 135.858 533.166 134.75 533.166 133.352C533.166 131.972 533.797 130.898 535.075 130.898C536.303 130.898 536.95 131.886 536.95 133.352C536.95 134.835 536.286 135.858 535.075 135.858Z" fill="#B2B5B9" />
  <path d="M336 152.125C336 150.744 337.119 149.625 338.5 149.625H536.5C537.881 149.625 539 150.744 539 152.125V152.125C539 153.506 537.881 154.625 536.5 154.625H338.5C337.119 154.625 336 153.506 336 152.125V152.125Z" fill="#47B7F8" />
  <g opacity="0.6" clipPath="url(#clip0_101_119)">
    <path d="M46 139V154.333" stroke="#B2B5B9" strokeWidth="2" />
    <path d="M32.5 139H59.5" stroke="#B2B5B9" strokeWidth="2" />
    <path d="M32.75 147H59.5" stroke="#B2B5B9" strokeWidth="2" />
    <path d="M32 129C32 127.895 32.8954 127 34 127H58C59.1046 127 60 127.895 60 129V153C60 154.105 59.1046 155 58 155H34C32.8954 155 32 154.105 32 153V129Z" stroke="#FAFBFC" strokeWidth="2" strokeLinecap="round" strokeLinejoin="round" />
    <path d="M40 131H46" stroke="#FAFBFC" strokeWidth="2" strokeLinecap="round" strokeLinejoin="round" />
    <path d="M40 135H42" stroke="#FAFBFC" strokeWidth="2" strokeLinecap="round" strokeLinejoin="round" />
    <circle cx="36" cy="131" r="1" fill="#B2B5B9" />
    <circle cx="36" cy="135" r="1" fill="#B2B5B9" />
  </g>
  <path d="M81.458 130.174H80.0908V134.542C80.0908 135.745 79.3252 136.545 78.1836 136.545C77.083 136.545 76.5703 135.943 76.5703 134.672V130.174H75.1963V135.007C75.1963 136.798 76.0713 137.769 77.6914 137.769C78.8057 137.769 79.6465 137.249 80.0361 136.333H80.1318V137.625H81.458V130.174ZM84.1787 132.231C84.1787 133.318 84.8555 134.002 86.2158 134.31L87.3301 134.562C88.2324 134.768 88.5674 135.048 88.5674 135.595C88.5674 136.244 87.9658 136.661 87.0293 136.661C86.127 136.661 85.5117 136.299 85.3613 135.663H83.9805C84.1035 136.976 85.2383 137.762 86.9951 137.762C88.8135 137.762 89.9824 136.859 89.9824 135.444C89.9824 134.351 89.3193 133.722 87.8496 133.394L86.7695 133.154C85.9014 132.963 85.5391 132.669 85.5391 132.136C85.5391 131.521 86.1064 131.11 86.9814 131.11C87.8018 131.11 88.3828 131.486 88.5059 132.095H89.8184C89.6953 130.803 88.6289 130.023 87.002 130.023C85.293 130.023 84.1787 130.898 84.1787 132.231ZM97.5293 135.656C97.3447 136.265 96.6816 136.641 95.7998 136.641C94.624 136.641 93.8652 135.834 93.8652 134.576V134.241H98.8623V133.435C98.8623 131.315 97.6797 130.03 95.7314 130.03C93.7969 130.03 92.5186 131.322 92.5186 133.284V134.419C92.5186 136.538 93.7148 137.769 95.8066 137.769C97.4131 137.769 98.6436 136.907 98.8418 135.656H97.5293ZM95.7178 131.151C96.8457 131.151 97.5156 131.951 97.5156 133.277H93.8652C93.8652 131.944 94.5625 131.151 95.7178 131.151ZM104.044 134.303C104.044 132.478 104.98 131.432 106.662 131.432C107.072 131.432 107.558 131.521 107.893 131.644V130.14C107.646 130.037 107.243 129.982 106.819 129.982C105.391 129.982 104.522 130.673 104.229 132.074H104.037V130.174H101.091V131.227H102.711V136.572H101.234V137.625H106.307V136.572H104.044V134.303ZM110.142 132.231C110.142 133.318 110.818 134.002 112.179 134.31L113.293 134.562C114.195 134.768 114.53 135.048 114.53 135.595C114.53 136.244 113.929 136.661 112.992 136.661C112.09 136.661 111.475 136.299 111.324 135.663H109.943C110.066 136.976 111.201 137.762 112.958 137.762C114.776 137.762 115.945 136.859 115.945 135.444C115.945 134.351 115.282 133.722 113.812 133.394L112.732 133.154C111.864 132.963 111.502 132.669 111.502 132.136C111.502 131.521 112.069 131.11 112.944 131.11C113.765 131.11 114.346 131.486 114.469 132.095H115.781C115.658 130.803 114.592 130.023 112.965 130.023C111.256 130.023 110.142 130.898 110.142 132.231Z" fill="#FAFBFC" />
  <path d="M78.9121 154H79.8203L77.5498 146.954H76.6318L74.3613 154H75.2354L75.8506 151.979H78.3018L78.9121 154ZM77.0664 147.989H77.0908L78.0771 151.241H76.0752L77.0664 147.989ZM86.1602 153.199H82.8203V146.954H81.9658V154H86.1602V153.199ZM90.8838 154V147.745H93.0127V146.954H87.8955V147.745H90.0244V154H90.8838ZM99.3281 153.209H96.0322V150.787H99.1475V150.03H96.0322V147.745H99.3281V146.954H95.168V154H99.3281V153.209ZM104.086 151.192L105.399 154H106.371L104.936 151.017C105.736 150.753 106.249 149.996 106.249 149.073C106.249 147.765 105.375 146.954 103.979 146.954H101.615V154H102.465V151.192H104.086ZM102.465 147.721H103.9C104.843 147.721 105.38 148.219 105.38 149.093C105.38 149.972 104.833 150.465 103.861 150.465H102.465V147.721ZM117.61 154V147.745H119.739V146.954H114.622V147.745H116.751V154H117.61ZM125.684 154H126.592L124.321 146.954H123.403L121.133 154H122.007L122.622 151.979H125.073L125.684 154ZM123.838 147.989H123.862L124.849 151.241H122.847L123.838 147.989ZM130.676 154C132.189 154 133.088 153.268 133.088 152.032C133.088 151.09 132.468 150.401 131.521 150.309V150.235C132.229 150.113 132.731 149.474 132.731 148.697C132.731 147.604 131.95 146.954 130.651 146.954H128.371V154H130.676ZM129.226 147.696H130.456C131.354 147.696 131.862 148.111 131.862 148.849C131.862 149.591 131.325 149.996 130.324 149.996H129.226V147.696ZM129.226 153.253V150.714H130.461C131.604 150.714 132.194 151.144 132.194 151.974C132.194 152.813 131.608 153.253 130.49 153.253H129.226ZM139.613 153.199H136.273V146.954H135.419V154H139.613V153.199ZM146.1 153.209H142.804V150.787H145.919V150.03H142.804V147.745H146.1V146.954H141.939V154H146.1V153.209Z" fill="#FC9C66" />
  <path d="M156.206 150.475C156.206 152.135 156.704 153.57 157.676 154.674H158.501C157.49 153.253 157.065 152.008 157.065 150.475C157.065 148.941 157.49 147.696 158.501 146.275H157.676C156.704 147.379 156.206 148.819 156.206 150.475ZM163.093 150.733H163.898C164.875 150.733 165.495 151.256 165.495 152.076C165.495 152.872 164.895 153.37 163.928 153.37C163.049 153.37 162.424 152.882 162.346 152.13H161.53C161.594 153.346 162.561 154.146 163.952 154.146C165.358 154.146 166.364 153.292 166.364 152.096C166.364 151.134 165.808 150.475 164.87 150.353V150.274C165.627 150.089 166.071 149.483 166.071 148.634C166.071 147.564 165.173 146.808 163.913 146.808C162.609 146.808 161.75 147.564 161.667 148.785H162.492C162.561 148.028 163.088 147.564 163.879 147.564C164.675 147.564 165.202 148.038 165.202 148.756C165.202 149.493 164.65 150.011 163.859 150.011H163.093V150.733ZM170.658 154.156C172.123 154.156 173.139 153.316 173.139 152.115C173.139 151.227 172.558 150.499 171.703 150.318V150.24C172.421 150.04 172.855 149.439 172.855 148.673C172.855 147.574 171.942 146.798 170.658 146.798C169.374 146.798 168.456 147.574 168.456 148.673C168.456 149.439 168.9 150.045 169.608 150.24V150.318C168.739 150.528 168.173 151.241 168.173 152.115C168.173 153.316 169.193 154.156 170.658 154.156ZM170.658 149.947C169.843 149.947 169.301 149.469 169.301 148.746C169.301 148.028 169.843 147.55 170.658 147.55C171.474 147.55 172.011 148.028 172.011 148.746C172.011 149.469 171.474 149.947 170.658 149.947ZM170.658 153.409C169.701 153.409 169.042 152.853 169.042 152.047C169.042 151.241 169.701 150.685 170.658 150.685C171.615 150.685 172.274 151.241 172.274 152.047C172.274 152.853 171.615 153.409 170.658 153.409ZM174.908 149.215C174.908 150.504 175.831 151.451 177.091 151.451C177.535 151.451 178.033 151.241 178.243 150.958L178.316 150.997C178.272 151.075 178.238 151.139 178.077 151.358L176.158 154H177.145C177.198 153.927 178.658 151.876 178.722 151.769C179.415 150.763 179.698 150.016 179.698 149.215C179.698 147.809 178.697 146.808 177.306 146.808C175.914 146.808 174.908 147.818 174.908 149.215ZM177.301 147.574C178.189 147.574 178.863 148.268 178.863 149.171C178.863 150.079 178.189 150.772 177.301 150.772C176.417 150.772 175.743 150.079 175.743 149.171C175.743 148.268 176.417 147.574 177.301 147.574ZM188.906 151.295L188.862 148.443H188.926L190.342 152.345H191.016L192.432 148.443H192.495L192.451 151.295V154H193.218V146.954H192.251L190.713 151.329H190.649L189.102 146.954H188.14V154H188.906V151.295ZM197.492 154C199.006 154 199.904 153.268 199.904 152.032C199.904 151.09 199.284 150.401 198.337 150.309V150.235C199.045 150.113 199.548 149.474 199.548 148.697C199.548 147.604 198.767 146.954 197.468 146.954H195.188V154H197.492ZM196.042 147.696H197.272C198.171 147.696 198.679 148.111 198.679 148.849C198.679 149.591 198.142 149.996 197.141 149.996H196.042V147.696ZM196.042 153.253V150.714H197.277C198.42 150.714 199.011 151.144 199.011 151.974C199.011 152.813 198.425 153.253 197.307 153.253H196.042ZM205.106 150.475C205.106 148.819 204.608 147.379 203.637 146.275H202.812C203.822 147.696 204.247 148.941 204.247 150.475C204.247 152.008 203.822 153.253 202.812 154.674H203.637C204.608 153.57 205.106 152.135 205.106 150.475Z" fill="#B2B5B9" />
  <path d="M342.179 183.898H341.122L338.94 185.347V186.42L341.071 185.006H341.122V192.625H342.179V183.898ZM344.706 192.625H345.711V188.534C345.711 187.575 346.41 186.898 347.194 186.898C347.957 186.898 348.49 187.396 348.49 188.142V192.625H349.512V188.364C349.512 187.52 350.041 186.898 350.961 186.898C351.677 186.898 352.291 187.277 352.291 188.244V192.625H353.297V188.244C353.297 186.706 352.47 185.994 351.302 185.994C350.365 185.994 349.679 186.425 349.342 187.102H349.274C348.95 186.403 348.379 185.994 347.518 185.994C346.666 185.994 346.035 186.403 345.762 187.102H345.677V186.08H344.706V192.625ZM361.561 183.898H360.505L358.323 185.347V186.42L360.453 185.006H360.505V192.625H361.561V183.898ZM363.867 190.835H367.975V192.625H368.98V190.835H370.174V189.898H368.98V183.898H367.702L363.867 189.966V190.835ZM367.975 189.898H365.009V189.83L367.907 185.244H367.975V189.898ZM376.424 187.545C376.109 186.616 375.401 185.994 374.106 185.994C372.725 185.994 371.702 186.778 371.702 187.886C371.702 188.79 372.239 189.395 373.441 189.676L374.532 189.932C375.192 190.085 375.504 190.401 375.504 190.852C375.504 191.415 374.907 191.875 373.969 191.875C373.147 191.875 372.631 191.521 372.452 190.818L371.498 191.057C371.732 192.169 372.648 192.761 373.987 192.761C375.508 192.761 376.543 191.93 376.543 190.801C376.543 189.889 375.972 189.314 374.805 189.028L373.833 188.79C373.058 188.598 372.708 188.338 372.708 187.835C372.708 187.273 373.305 186.864 374.106 186.864C374.984 186.864 375.346 187.349 375.521 187.801L376.424 187.545ZM381.432 192.625H382.438V188.483C382.438 187.597 383.137 186.949 384.091 186.949C384.36 186.949 384.637 187 384.705 187.017V185.994C384.59 185.986 384.326 185.977 384.176 185.977C383.392 185.977 382.711 186.42 382.472 187.068H382.404V186.08H381.432V192.625ZM388.442 192.761C389.772 192.761 390.743 192.097 391.05 191.108L390.078 190.835C389.823 191.517 389.23 191.858 388.442 191.858C387.262 191.858 386.448 191.095 386.401 189.693H391.152V189.267C391.152 186.83 389.703 185.994 388.34 185.994C386.567 185.994 385.391 187.392 385.391 189.403C385.391 191.415 386.55 192.761 388.442 192.761ZM386.401 188.824C386.469 187.805 387.189 186.898 388.34 186.898C389.431 186.898 390.13 187.716 390.13 188.824H386.401ZM392.682 192.625H393.688V188.534C393.688 187.575 394.387 186.898 395.171 186.898C395.934 186.898 396.466 187.396 396.466 188.142V192.625H397.489V188.364C397.489 187.52 398.017 186.898 398.938 186.898C399.654 186.898 400.267 187.277 400.267 188.244V192.625H401.273V188.244C401.273 186.706 400.446 185.994 399.279 185.994C398.341 185.994 397.655 186.425 397.319 187.102H397.25C396.926 186.403 396.355 185.994 395.495 185.994C394.642 185.994 394.012 186.403 393.739 187.102H393.654V186.08H392.682V192.625ZM405.038 192.778C406.18 192.778 406.777 192.165 406.981 191.739H407.032V192.625H408.038V188.312C408.038 186.233 406.453 185.994 405.618 185.994C404.629 185.994 403.504 186.335 402.993 187.528L403.947 187.869C404.169 187.392 404.693 186.881 405.652 186.881C406.576 186.881 407.032 187.371 407.032 188.21V188.244C407.032 188.73 406.538 188.688 405.345 188.841C404.13 188.999 402.805 189.267 402.805 190.767C402.805 192.045 403.794 192.778 405.038 192.778ZM405.191 191.875C404.39 191.875 403.811 191.517 403.811 190.818C403.811 190.051 404.51 189.812 405.294 189.71C405.72 189.659 406.862 189.54 407.032 189.335V190.256C407.032 191.074 406.385 191.875 405.191 191.875ZM409.874 192.625H410.879V186.08H409.874V192.625ZM410.385 184.989C410.777 184.989 411.101 184.682 411.101 184.307C411.101 183.932 410.777 183.625 410.385 183.625C409.993 183.625 409.669 183.932 409.669 184.307C409.669 184.682 409.993 184.989 410.385 184.989ZM413.727 188.688C413.727 187.545 414.434 186.898 415.397 186.898C416.331 186.898 416.897 187.507 416.897 188.534V192.625H417.903V188.466C417.903 186.795 417.012 185.994 415.687 185.994C414.699 185.994 414.085 186.438 413.778 187.102H413.693V186.08H412.721V192.625H413.727V188.688ZM419.741 192.625H420.746V186.08H419.741V192.625ZM420.252 184.989C420.644 184.989 420.968 184.682 420.968 184.307C420.968 183.932 420.644 183.625 420.252 183.625C419.86 183.625 419.536 183.932 419.536 184.307C419.536 184.682 419.86 184.989 420.252 184.989ZM423.594 188.688C423.594 187.545 424.301 186.898 425.265 186.898C426.198 186.898 426.765 187.507 426.765 188.534V192.625H427.77V188.466C427.77 186.795 426.88 185.994 425.554 185.994C424.566 185.994 423.952 186.438 423.645 187.102H423.56V186.08H422.588V192.625H423.594V188.688ZM432.25 195.216C433.818 195.216 435.08 194.5 435.08 192.812V186.08H434.108V187.119H434.006C433.784 186.778 433.375 185.994 432.097 185.994C430.443 185.994 429.301 187.307 429.301 189.318C429.301 191.364 430.494 192.523 432.08 192.523C433.358 192.523 433.767 191.773 433.989 191.415H434.074V192.744C434.074 193.835 433.307 194.33 432.25 194.33C431.061 194.33 430.643 193.703 430.375 193.341L429.574 193.903C429.983 194.589 430.788 195.216 432.25 195.216ZM432.216 191.619C430.955 191.619 430.307 190.665 430.307 189.301C430.307 187.972 430.938 186.898 432.216 186.898C433.443 186.898 434.091 187.886 434.091 189.301C434.091 190.75 433.426 191.619 432.216 191.619Z" fill="#FAFBFC" />
  <path d="M461.676 192.744C463.368 192.744 464.625 191.683 464.625 190.256C464.625 189.148 463.969 188.342 462.87 188.159V188.091C463.752 187.822 464.301 187.098 464.301 186.114C464.301 184.878 463.326 183.778 461.711 183.778C460.202 183.778 458.949 184.707 458.898 186.08H459.921C459.959 185.21 460.786 184.699 461.694 184.699C462.657 184.699 463.279 185.283 463.279 186.165C463.279 187.085 462.559 187.682 461.523 187.682H460.824V188.619H461.523C462.848 188.619 463.586 189.293 463.586 190.256C463.586 191.18 462.78 191.807 461.659 191.807C460.65 191.807 459.848 191.287 459.784 190.443H458.711C458.775 191.815 459.985 192.744 461.676 192.744ZM466.164 190.835H470.272V192.625H471.277V190.835H472.471V189.898H471.277V183.898H469.999L466.164 189.966V190.835ZM470.272 189.898H467.306V189.83L470.203 185.244H470.272V189.898ZM478.516 190.989C478.516 191.943 479.113 192.744 480.221 192.744C481.312 192.744 481.908 191.943 481.908 190.989V190.528C481.908 189.574 481.329 188.773 480.221 188.773C479.13 188.773 478.516 189.574 478.516 190.528V190.989ZM474.17 185.994C474.17 186.949 474.766 187.75 475.874 187.75C476.965 187.75 477.562 186.949 477.562 185.994V185.534C477.562 184.58 476.982 183.778 475.874 183.778C474.783 183.778 474.17 184.58 474.17 185.534V185.994ZM474.494 192.625H475.465L481.465 183.898H480.494L474.494 192.625ZM479.386 190.528C479.386 190 479.624 189.506 480.221 189.506C480.835 189.506 481.039 190 481.039 190.528V190.989C481.039 191.517 480.817 192.011 480.221 192.011C479.607 192.011 479.386 191.517 479.386 190.989V190.528ZM475.039 185.534C475.039 185.006 475.278 184.511 475.874 184.511C476.488 184.511 476.692 185.006 476.692 185.534V185.994C476.692 186.523 476.471 187.017 475.874 187.017C475.261 187.017 475.039 186.523 475.039 185.994V185.534ZM489.869 192.761C491.317 192.761 492.272 191.875 492.442 190.716H491.437C491.249 191.432 490.653 191.858 489.869 191.858C488.675 191.858 487.908 190.869 487.908 189.352C487.908 187.869 488.692 186.898 489.869 186.898C490.755 186.898 491.283 187.443 491.437 188.04H492.442C492.272 186.812 491.232 185.994 489.852 185.994C488.079 185.994 486.903 187.392 486.903 189.386C486.903 191.347 488.028 192.761 489.869 192.761ZM496.572 192.761C498.344 192.761 499.538 191.415 499.538 189.386C499.538 187.341 498.344 185.994 496.572 185.994C494.799 185.994 493.606 187.341 493.606 189.386C493.606 191.415 494.799 192.761 496.572 192.761ZM496.572 191.858C495.225 191.858 494.612 190.699 494.612 189.386C494.612 188.074 495.225 186.898 496.572 186.898C497.918 186.898 498.532 188.074 498.532 189.386C498.532 190.699 497.918 191.858 496.572 191.858ZM501.073 192.625H502.078V188.534C502.078 187.575 502.777 186.898 503.561 186.898C504.324 186.898 504.857 187.396 504.857 188.142V192.625H505.88V188.364C505.88 187.52 506.408 186.898 507.328 186.898C508.044 186.898 508.658 187.277 508.658 188.244V192.625H509.664V188.244C509.664 186.706 508.837 185.994 507.669 185.994C506.732 185.994 506.046 186.425 505.709 187.102H505.641C505.317 186.403 504.746 185.994 503.885 185.994C503.033 185.994 502.402 186.403 502.13 187.102H502.044V186.08H501.073V192.625ZM511.502 195.08H512.508V191.619H512.593C512.815 191.977 513.241 192.761 514.502 192.761C516.139 192.761 517.281 191.449 517.281 189.369C517.281 187.307 516.139 185.994 514.485 185.994C513.207 185.994 512.815 186.778 512.593 187.119H512.474V186.08H511.502V195.08ZM512.491 189.352C512.491 187.886 513.139 186.898 514.366 186.898C515.645 186.898 516.275 187.972 516.275 189.352C516.275 190.75 515.627 191.858 514.366 191.858C513.156 191.858 512.491 190.835 512.491 189.352ZM519.821 183.898H518.815V192.625H519.821V183.898ZM524.407 192.761C525.737 192.761 526.708 192.097 527.015 191.108L526.043 190.835C525.788 191.517 525.195 191.858 524.407 191.858C523.227 191.858 522.413 191.095 522.366 189.693H527.117V189.267C527.117 186.83 525.668 185.994 524.305 185.994C522.532 185.994 521.356 187.392 521.356 189.403C521.356 191.415 522.515 192.761 524.407 192.761ZM522.366 188.824C522.434 187.805 523.154 186.898 524.305 186.898C525.396 186.898 526.094 187.716 526.094 188.824H522.366ZM531.494 186.08H530.096V184.511H529.09V186.08H528.102V186.932H529.09V191.023C529.09 192.165 530.011 192.71 530.863 192.71C531.238 192.71 531.477 192.642 531.613 192.591L531.408 191.688C531.323 191.705 531.187 191.739 530.965 191.739C530.522 191.739 530.096 191.602 530.096 190.75V186.932H531.494V186.08ZM535.68 192.761C537.01 192.761 537.982 192.097 538.288 191.108L537.317 190.835C537.061 191.517 536.469 191.858 535.68 191.858C534.5 191.858 533.686 191.095 533.639 189.693H538.391V189.267C538.391 186.83 536.942 185.994 535.578 185.994C533.805 185.994 532.629 187.392 532.629 189.403C532.629 191.415 533.788 192.761 535.68 192.761ZM533.639 188.824C533.707 187.805 534.428 186.898 535.578 186.898C536.669 186.898 537.368 187.716 537.368 188.824H533.639Z" fill="#FAFBFC" />
  <rect x="336" y="205.625" width="203" height="5" rx="2.5" fill="#444854" />
  <rect x="336" y="205.625" width="71" height="5" rx="2.5" fill="#47B7F8" />
  <g opacity="0.6" clipPath="url(#clip1_101_119)">
    <path d="M46 195V210.333" stroke="#B2B5B9" strokeWidth="2" />
    <path d="M32.5 195H59.5" stroke="#B2B5B9" strokeWidth="2" />
    <path d="M32.75 203H59.5" stroke="#B2B5B9" strokeWidth="2" />
    <path d="M32 185C32 183.895 32.8954 183 34 183H58C59.1046 183 60 183.895 60 185V209C60 210.105 59.1046 211 58 211H34C32.8954 211 32 210.105 32 209V185Z" stroke="#FAFBFC" strokeWidth="2" strokeLinecap="round" strokeLinejoin="round" />
    <path d="M40 187H46" stroke="#FAFBFC" strokeWidth="2" strokeLinecap="round" strokeLinejoin="round" />
    <path d="M40 191H42" stroke="#FAFBFC" strokeWidth="2" strokeLinecap="round" strokeLinejoin="round" />
    <circle cx="36" cy="187" r="1" fill="#B2B5B9" />
    <circle cx="36" cy="191" r="1" fill="#B2B5B9" />
  </g>
  <path d="M78.9082 186.058C77.8281 186.058 77.0625 186.509 76.7139 187.356H76.584V186.174H75.21V196.127H76.6182V192.442H76.748C77.0488 193.276 77.8281 193.748 78.9082 193.748C80.624 193.748 81.7178 192.524 81.7178 190.583V189.223C81.7178 187.281 80.624 186.058 78.9082 186.058ZM78.4502 187.274C79.5986 187.274 80.3301 188.081 80.3301 189.359V190.474C80.3301 191.752 79.5986 192.565 78.4502 192.565C77.3086 192.565 76.584 191.759 76.584 190.474V189.359C76.584 188.081 77.3086 187.274 78.4502 187.274ZM86.9814 193.769C88.9912 193.769 90.2695 192.483 90.2695 190.467V189.339C90.2695 187.315 88.9912 186.037 86.9814 186.037C84.9717 186.037 83.6934 187.315 83.6934 189.339V190.467C83.6934 192.483 84.9717 193.769 86.9814 193.769ZM86.9814 187.199C88.1709 187.199 88.916 188.054 88.916 189.435V190.371C88.916 191.752 88.1709 192.606 86.9814 192.606C85.792 192.606 85.0469 191.752 85.0469 190.371V189.435C85.0469 188.054 85.792 187.199 86.9814 187.199ZM92.833 188.231C92.833 189.318 93.5098 190.002 94.8701 190.31L95.9844 190.562C96.8867 190.768 97.2217 191.048 97.2217 191.595C97.2217 192.244 96.6201 192.661 95.6836 192.661C94.7812 192.661 94.166 192.299 94.0156 191.663H92.6348C92.7578 192.976 93.8926 193.762 95.6494 193.762C97.4678 193.762 98.6367 192.859 98.6367 191.444C98.6367 190.351 97.9736 189.722 96.5039 189.394L95.4238 189.154C94.5557 188.963 94.1934 188.669 94.1934 188.136C94.1934 187.521 94.7607 187.11 95.6357 187.11C96.4561 187.11 97.0371 187.486 97.1602 188.095H98.4727C98.3496 186.803 97.2832 186.023 95.6562 186.023C93.9473 186.023 92.833 186.898 92.833 188.231ZM102.937 184.137V186.215H100.968V187.343H102.937V191.369C102.937 192.969 103.771 193.652 105.678 193.652C105.965 193.652 107.045 193.625 107.195 193.598V192.477C107.031 192.497 106.122 192.511 105.773 192.511C104.823 192.511 104.311 192.107 104.311 191.369V187.343H107.236V186.215H104.29V184.137H102.937ZM110.142 188.231C110.142 189.318 110.818 190.002 112.179 190.31L113.293 190.562C114.195 190.768 114.53 191.048 114.53 191.595C114.53 192.244 113.929 192.661 112.992 192.661C112.09 192.661 111.475 192.299 111.324 191.663H109.943C110.066 192.976 111.201 193.762 112.958 193.762C114.776 193.762 115.945 192.859 115.945 191.444C115.945 190.351 115.282 189.722 113.812 189.394L112.732 189.154C111.864 188.963 111.502 188.669 111.502 188.136C111.502 187.521 112.069 187.11 112.944 187.11C113.765 187.11 114.346 187.486 114.469 188.095H115.781C115.658 186.803 114.592 186.023 112.965 186.023C111.256 186.023 110.142 186.898 110.142 188.231Z" fill="#FAFBFC" />
  <path d="M78.9121 210H79.8203L77.5498 202.954H76.6318L74.3613 210H75.2354L75.8506 207.979H78.3018L78.9121 210ZM77.0664 203.989H77.0908L78.0771 207.241H76.0752L77.0664 203.989ZM86.1602 209.199H82.8203V202.954H81.9658V210H86.1602V209.199ZM90.8838 210V203.745H93.0127V202.954H87.8955V203.745H90.0244V210H90.8838ZM99.3281 209.209H96.0322V206.787H99.1475V206.03H96.0322V203.745H99.3281V202.954H95.168V210H99.3281V209.209ZM104.086 207.192L105.399 210H106.371L104.936 207.017C105.736 206.753 106.249 205.996 106.249 205.073C106.249 203.765 105.375 202.954 103.979 202.954H101.615V210H102.465V207.192H104.086ZM102.465 203.721H103.9C104.843 203.721 105.38 204.219 105.38 205.093C105.38 205.972 104.833 206.465 103.861 206.465H102.465V203.721ZM117.61 210V203.745H119.739V202.954H114.622V203.745H116.751V210H117.61ZM125.684 210H126.592L124.321 202.954H123.403L121.133 210H122.007L122.622 207.979H125.073L125.684 210ZM123.838 203.989H123.862L124.849 207.241H122.847L123.838 203.989ZM130.676 210C132.189 210 133.088 209.268 133.088 208.032C133.088 207.09 132.468 206.401 131.521 206.309V206.235C132.229 206.113 132.731 205.474 132.731 204.697C132.731 203.604 131.95 202.954 130.651 202.954H128.371V210H130.676ZM129.226 203.696H130.456C131.354 203.696 131.862 204.111 131.862 204.849C131.862 205.591 131.325 205.996 130.324 205.996H129.226V203.696ZM129.226 209.253V206.714H130.461C131.604 206.714 132.194 207.144 132.194 207.974C132.194 208.813 131.608 209.253 130.49 209.253H129.226ZM139.613 209.199H136.273V202.954H135.419V210H139.613V209.199ZM146.1 209.209H142.804V206.787H145.919V206.03H142.804V203.745H146.1V202.954H141.939V210H146.1V209.209Z" fill="#FC9C66" />
  <path d="M156.206 206.475C156.206 208.135 156.704 209.57 157.676 210.674H158.501C157.49 209.253 157.065 208.008 157.065 206.475C157.065 204.941 157.49 203.696 158.501 202.275H157.676C156.704 203.379 156.206 204.819 156.206 206.475ZM163.977 210.156C165.441 210.156 166.457 209.316 166.457 208.115C166.457 207.227 165.876 206.499 165.021 206.318V206.24C165.739 206.04 166.174 205.439 166.174 204.673C166.174 203.574 165.261 202.798 163.977 202.798C162.692 202.798 161.774 203.574 161.774 204.673C161.774 205.439 162.219 206.045 162.927 206.24V206.318C162.058 206.528 161.491 207.241 161.491 208.115C161.491 209.316 162.512 210.156 163.977 210.156ZM163.977 205.947C163.161 205.947 162.619 205.469 162.619 204.746C162.619 204.028 163.161 203.55 163.977 203.55C164.792 203.55 165.329 204.028 165.329 204.746C165.329 205.469 164.792 205.947 163.977 205.947ZM163.977 209.409C163.02 209.409 162.36 208.853 162.36 208.047C162.36 207.241 163.02 206.685 163.977 206.685C164.934 206.685 165.593 207.241 165.593 208.047C165.593 208.853 164.934 209.409 163.977 209.409ZM171.459 210H172.245V208.511H173.324V207.754H172.25V205.752H171.469V207.764H169.159V207.7L171.518 202.954H170.639L168.246 207.812V208.511H171.459V210ZM175.069 204.937V204.966H175.899V204.937C175.899 204.106 176.437 203.564 177.247 203.564C178.067 203.564 178.6 204.062 178.6 204.819C178.6 205.376 178.385 205.752 177.491 206.753L175.108 209.404V210H179.566V209.219H176.339V209.136L177.999 207.329C179.122 206.104 179.454 205.518 179.454 204.785C179.454 203.608 178.565 202.808 177.271 202.808C175.987 202.808 175.069 203.696 175.069 204.937ZM188.906 207.295L188.862 204.443H188.926L190.342 208.345H191.016L192.432 204.443H192.495L192.451 207.295V210H193.218V202.954H192.251L190.713 207.329H190.649L189.102 202.954H188.14V210H188.906V207.295ZM197.492 210C199.006 210 199.904 209.268 199.904 208.032C199.904 207.09 199.284 206.401 198.337 206.309V206.235C199.045 206.113 199.548 205.474 199.548 204.697C199.548 203.604 198.767 202.954 197.468 202.954H195.188V210H197.492ZM196.042 203.696H197.272C198.171 203.696 198.679 204.111 198.679 204.849C198.679 205.591 198.142 205.996 197.141 205.996H196.042V203.696ZM196.042 209.253V206.714H197.277C198.42 206.714 199.011 207.144 199.011 207.974C199.011 208.813 198.425 209.253 197.307 209.253H196.042ZM205.106 206.475C205.106 204.819 204.608 203.379 203.637 202.275H202.812C203.822 203.696 204.247 204.941 204.247 206.475C204.247 208.008 203.822 209.253 202.812 210.674H203.637C204.608 209.57 205.106 208.135 205.106 206.475Z" fill="#B2B5B9" />
  <path d="M482.055 239.898H481.016V246.767H480.93L476.158 239.898H475.135V248.625H476.192V241.773H476.277L481.033 248.625H482.055V239.898ZM486.693 248.761C488.466 248.761 489.659 247.415 489.659 245.386C489.659 243.341 488.466 241.994 486.693 241.994C484.92 241.994 483.727 243.341 483.727 245.386C483.727 247.415 484.92 248.761 486.693 248.761ZM486.693 247.858C485.346 247.858 484.733 246.699 484.733 245.386C484.733 244.074 485.346 242.898 486.693 242.898C488.039 242.898 488.653 244.074 488.653 245.386C488.653 246.699 488.039 247.858 486.693 247.858ZM494.04 242.08H492.643V240.511H491.637V242.08H490.648V242.932H491.637V247.023C491.637 248.165 492.558 248.71 493.41 248.71C493.785 248.71 494.023 248.642 494.16 248.591L493.955 247.688C493.87 247.705 493.734 247.739 493.512 247.739C493.069 247.739 492.643 247.602 492.643 246.75V242.932H494.04V242.08ZM503.565 243.545C503.249 242.616 502.542 241.994 501.246 241.994C499.866 241.994 498.843 242.778 498.843 243.886C498.843 244.79 499.38 245.395 500.582 245.676L501.673 245.932C502.333 246.085 502.644 246.401 502.644 246.852C502.644 247.415 502.048 247.875 501.11 247.875C500.288 247.875 499.772 247.521 499.593 246.818L498.638 247.057C498.873 248.169 499.789 248.761 501.127 248.761C502.648 248.761 503.684 247.93 503.684 246.801C503.684 245.889 503.113 245.314 501.945 245.028L500.974 244.79C500.198 244.598 499.849 244.338 499.849 243.835C499.849 243.273 500.445 242.864 501.246 242.864C502.124 242.864 502.487 243.349 502.661 243.801L503.565 243.545ZM508.044 242.08H506.647V240.511H505.641V242.08H504.652V242.932H505.641V247.023C505.641 248.165 506.561 248.71 507.414 248.71C507.789 248.71 508.027 248.642 508.164 248.591L507.959 247.688C507.874 247.705 507.738 247.739 507.516 247.739C507.073 247.739 506.647 247.602 506.647 246.75V242.932H508.044V242.08ZM511.483 248.778C512.625 248.778 513.222 248.165 513.426 247.739H513.478V248.625H514.483V244.312C514.483 242.233 512.898 241.994 512.063 241.994C511.074 241.994 509.949 242.335 509.438 243.528L510.392 243.869C510.614 243.392 511.138 242.881 512.097 242.881C513.022 242.881 513.478 243.371 513.478 244.21V244.244C513.478 244.73 512.983 244.688 511.79 244.841C510.576 244.999 509.25 245.267 509.25 246.767C509.25 248.045 510.239 248.778 511.483 248.778ZM511.637 247.875C510.836 247.875 510.256 247.517 510.256 246.818C510.256 246.051 510.955 245.812 511.739 245.71C512.165 245.659 513.307 245.54 513.478 245.335V246.256C513.478 247.074 512.83 247.875 511.637 247.875ZM516.319 248.625H517.325V244.483C517.325 243.597 518.023 242.949 518.978 242.949C519.246 242.949 519.523 243 519.592 243.017V241.994C519.477 241.986 519.212 241.977 519.063 241.977C518.279 241.977 517.597 242.42 517.359 243.068H517.29V242.08H516.319V248.625ZM524.04 242.08H522.643V240.511H521.637V242.08H520.648V242.932H521.637V247.023C521.637 248.165 522.558 248.71 523.41 248.71C523.785 248.71 524.023 248.642 524.16 248.591L523.955 247.688C523.87 247.705 523.734 247.739 523.512 247.739C523.069 247.739 522.643 247.602 522.643 246.75V242.932H524.04V242.08ZM528.227 248.761C529.557 248.761 530.528 248.097 530.835 247.108L529.864 246.835C529.608 247.517 529.016 247.858 528.227 247.858C527.047 247.858 526.233 247.095 526.186 245.693H530.938V245.267C530.938 242.83 529.489 241.994 528.125 241.994C526.352 241.994 525.176 243.392 525.176 245.403C525.176 247.415 526.335 248.761 528.227 248.761ZM526.186 244.824C526.254 243.805 526.974 242.898 528.125 242.898C529.216 242.898 529.915 243.716 529.915 244.824H526.186ZM534.939 248.761C536.2 248.761 536.626 247.977 536.848 247.619H536.967V248.625H537.939V239.898H536.933V243.119H536.848C536.626 242.778 536.234 241.994 534.956 241.994C533.303 241.994 532.161 243.307 532.161 245.369C532.161 247.449 533.303 248.761 534.939 248.761ZM535.075 247.858C533.814 247.858 533.166 246.75 533.166 245.352C533.166 243.972 533.797 242.898 535.075 242.898C536.303 242.898 536.95 243.886 536.95 245.352C536.95 246.835 536.286 247.858 535.075 247.858Z" fill="#B2B5B9" />
  <rect x="336" y="261.625" width="203" height="5" rx="2.5" fill="#444854" />
  <g opacity="0.6" clipPath="url(#clip2_101_119)">
    <path d="M46 251V266.333" stroke="#B2B5B9" strokeWidth="2" />
    <path d="M32.5 251H59.5" stroke="#B2B5B9" strokeWidth="2" />
    <path d="M32.75 259H59.5" stroke="#B2B5B9" strokeWidth="2" />
    <path d="M32 241C32 239.895 32.8954 239 34 239H58C59.1046 239 60 239.895 60 241V265C60 266.105 59.1046 267 58 267H34C32.8954 267 32 266.105 32 265V241Z" stroke="#FAFBFC" strokeWidth="2" strokeLinecap="round" strokeLinejoin="round" />
    <path d="M40 243H46" stroke="#FAFBFC" strokeWidth="2" strokeLinecap="round" strokeLinejoin="round" />
    <path d="M40 247H42" stroke="#FAFBFC" strokeWidth="2" strokeLinecap="round" strokeLinejoin="round" />
    <circle cx="36" cy="243" r="1" fill="#B2B5B9" />
    <circle cx="36" cy="247" r="1" fill="#B2B5B9" />
  </g>
  <path d="M81.5127 244.573C81.3281 242.96 80.2002 242.023 78.4639 242.023C76.3926 242.023 75.1963 243.261 75.1963 245.435V246.351C75.1963 248.524 76.3926 249.769 78.4639 249.769C80.2002 249.769 81.3281 248.832 81.5127 247.246H80.1592C80.0225 248.087 79.3662 248.586 78.4502 248.586C77.2402 248.586 76.5703 247.738 76.5703 246.207V245.578C76.5703 244.047 77.2402 243.199 78.4502 243.199C79.3594 243.199 80.0293 243.712 80.1592 244.573H81.5127ZM86.9814 249.769C88.9912 249.769 90.2695 248.483 90.2695 246.467V245.339C90.2695 243.315 88.9912 242.037 86.9814 242.037C84.9717 242.037 83.6934 243.315 83.6934 245.339V246.467C83.6934 248.483 84.9717 249.769 86.9814 249.769ZM86.9814 243.199C88.1709 243.199 88.916 244.054 88.916 245.435V246.371C88.916 247.752 88.1709 248.606 86.9814 248.606C85.792 248.606 85.0469 247.752 85.0469 246.371V245.435C85.0469 244.054 85.792 243.199 86.9814 243.199ZM99.2793 244.054C99.2793 242.734 98.7529 242.03 97.748 242.03C97.0098 242.03 96.4355 242.488 96.2578 243.227H96.1074C95.9502 242.468 95.4648 242.03 94.7676 242.03C94.0566 242.03 93.5303 242.481 93.3525 243.254H93.2021V242.174H91.9922V249.625H93.1953V244.573C93.1953 243.753 93.5713 243.247 94.1729 243.247C94.7402 243.247 95.0479 243.671 95.0479 244.471V249.625H96.2441V244.573C96.2441 243.753 96.6133 243.247 97.2012 243.247C97.7617 243.247 98.0762 243.678 98.0762 244.478V249.625H99.2793V244.054ZM107.934 244.054C107.934 242.734 107.407 242.03 106.402 242.03C105.664 242.03 105.09 242.488 104.912 243.227H104.762C104.604 242.468 104.119 242.03 103.422 242.03C102.711 242.03 102.185 242.481 102.007 243.254H101.856V242.174H100.646V249.625H101.85V244.573C101.85 243.753 102.226 243.247 102.827 243.247C103.395 243.247 103.702 243.671 103.702 244.471V249.625H104.898V244.573C104.898 243.753 105.268 243.247 105.855 243.247C106.416 243.247 106.73 243.678 106.73 244.478V249.625H107.934V244.054ZM114.838 247.656C114.653 248.265 113.99 248.641 113.108 248.641C111.933 248.641 111.174 247.834 111.174 246.576V246.241H116.171V245.435C116.171 243.315 114.988 242.03 113.04 242.03C111.105 242.03 109.827 243.322 109.827 245.284V246.419C109.827 248.538 111.023 249.769 113.115 249.769C114.722 249.769 115.952 248.907 116.15 247.656H114.838ZM113.026 243.151C114.154 243.151 114.824 243.951 114.824 245.277H111.174C111.174 243.944 111.871 243.151 113.026 243.151ZM118.468 249.625H119.835V245.257C119.835 244.054 120.601 243.254 121.742 243.254C122.843 243.254 123.355 243.855 123.355 245.134V249.625H124.729V244.792C124.729 243.001 123.854 242.03 122.234 242.03C121.12 242.03 120.279 242.55 119.89 243.473H119.794V242.174H118.468V249.625ZM128.899 240.137V242.215H126.931V243.343H128.899V247.369C128.899 248.969 129.733 249.652 131.641 249.652C131.928 249.652 133.008 249.625 133.158 249.598V248.477C132.994 248.497 132.085 248.511 131.736 248.511C130.786 248.511 130.273 248.107 130.273 247.369V243.343H133.199V242.215H130.253V240.137H128.899ZM136.104 244.231C136.104 245.318 136.781 246.002 138.142 246.31L139.256 246.562C140.158 246.768 140.493 247.048 140.493 247.595C140.493 248.244 139.892 248.661 138.955 248.661C138.053 248.661 137.438 248.299 137.287 247.663H135.906C136.029 248.976 137.164 249.762 138.921 249.762C140.739 249.762 141.908 248.859 141.908 247.444C141.908 246.351 141.245 245.722 139.775 245.394L138.695 245.154C137.827 244.963 137.465 244.669 137.465 244.136C137.465 243.521 138.032 243.11 138.907 243.11C139.728 243.11 140.309 243.486 140.432 244.095H141.744C141.621 242.803 140.555 242.023 138.928 242.023C137.219 242.023 136.104 242.898 136.104 244.231Z" fill="#FAFBFC" />
  <path d="M78.9121 266H79.8203L77.5498 258.954H76.6318L74.3613 266H75.2354L75.8506 263.979H78.3018L78.9121 266ZM77.0664 259.989H77.0908L78.0771 263.241H76.0752L77.0664 259.989ZM86.1602 265.199H82.8203V258.954H81.9658V266H86.1602V265.199ZM90.8838 266V259.745H93.0127V258.954H87.8955V259.745H90.0244V266H90.8838ZM99.3281 265.209H96.0322V262.787H99.1475V262.03H96.0322V259.745H99.3281V258.954H95.168V266H99.3281V265.209ZM104.086 263.192L105.399 266H106.371L104.936 263.017C105.736 262.753 106.249 261.996 106.249 261.073C106.249 259.765 105.375 258.954 103.979 258.954H101.615V266H102.465V263.192H104.086ZM102.465 259.721H103.9C104.843 259.721 105.38 260.219 105.38 261.093C105.38 261.972 104.833 262.465 103.861 262.465H102.465V259.721ZM117.61 266V259.745H119.739V258.954H114.622V259.745H116.751V266H117.61ZM125.684 266H126.592L124.321 258.954H123.403L121.133 266H122.007L122.622 263.979H125.073L125.684 266ZM123.838 259.989H123.862L124.849 263.241H122.847L123.838 259.989ZM130.676 266C132.189 266 133.088 265.268 133.088 264.032C133.088 263.09 132.468 262.401 131.521 262.309V262.235C132.229 262.113 132.731 261.474 132.731 260.697C132.731 259.604 131.95 258.954 130.651 258.954H128.371V266H130.676ZM129.226 259.696H130.456C131.354 259.696 131.862 260.111 131.862 260.849C131.862 261.591 131.325 261.996 130.324 261.996H129.226V259.696ZM129.226 265.253V262.714H130.461C131.604 262.714 132.194 263.144 132.194 263.974C132.194 264.813 131.608 265.253 130.49 265.253H129.226ZM139.613 265.199H136.273V258.954H135.419V266H139.613V265.199ZM146.1 265.209H142.804V262.787H145.919V262.03H142.804V259.745H146.1V258.954H141.939V266H146.1V265.209Z" fill="#FC9C66" />
  <path d="M156.206 262.475C156.206 264.135 156.704 265.57 157.676 266.674H158.501C157.49 265.253 157.065 264.008 157.065 262.475C157.065 260.941 157.49 259.696 158.501 258.275H157.676C156.704 259.379 156.206 260.819 156.206 262.475ZM166.613 266V265.243H164.631V258.954H163.786L161.687 260.316V261.234L163.703 259.931H163.781V265.243H161.701V266H166.613ZM170.634 266.029C171.117 266.029 171.518 265.624 171.518 265.126C171.518 264.633 171.117 264.228 170.634 264.228C170.15 264.228 169.75 264.633 169.75 265.126C169.75 265.624 170.15 266.029 170.634 266.029ZM175.069 260.937V260.966H175.899V260.937C175.899 260.106 176.437 259.564 177.247 259.564C178.067 259.564 178.6 260.062 178.6 260.819C178.6 261.376 178.385 261.752 177.491 262.753L175.108 265.404V266H179.566V265.219H176.339V265.136L177.999 263.329C179.122 262.104 179.454 261.518 179.454 260.785C179.454 259.608 178.565 258.808 177.271 258.808C175.987 258.808 175.069 259.696 175.069 260.937ZM192.354 263.842C192.354 264.765 191.758 265.331 190.796 265.331C189.658 265.331 189.062 264.564 189.062 263.104V261.85C189.062 260.39 189.653 259.623 190.791 259.623C191.689 259.623 192.314 260.243 192.354 261.161H193.223C193.188 259.701 192.271 258.808 190.806 258.808C189.15 258.808 188.193 259.921 188.193 261.85V263.104C188.193 265.033 189.15 266.146 190.806 266.146C192.227 266.146 193.223 265.238 193.223 263.915V262.416H190.728V263.153H192.354V263.842ZM197.492 266C199.006 266 199.904 265.268 199.904 264.032C199.904 263.09 199.284 262.401 198.337 262.309V262.235C199.045 262.113 199.548 261.474 199.548 260.697C199.548 259.604 198.767 258.954 197.468 258.954H195.188V266H197.492ZM196.042 259.696H197.272C198.171 259.696 198.679 260.111 198.679 260.849C198.679 261.591 198.142 261.996 197.141 261.996H196.042V259.696ZM196.042 265.253V262.714H197.277C198.42 262.714 199.011 263.144 199.011 263.974C199.011 264.813 198.425 265.253 197.307 265.253H196.042ZM205.106 262.475C205.106 260.819 204.608 259.379 203.637 258.275H202.812C203.822 259.696 204.247 260.941 204.247 262.475C204.247 264.008 203.822 265.253 202.812 266.674H203.637C204.608 265.57 205.106 264.135 205.106 262.475Z" fill="#B2B5B9" />
  <defs>
    <linearGradient id="paint0_linear_101_119" x1="168.528" y1="-18.4689" x2="407.832" y2="698.575" gradientUnits="userSpaceOnUse">
      <stop stopColor="#1A1B21" />
      <stop offset="1" stopColor="#30313A" />
    </linearGradient>
    <clipPath id="clip0_101_119">
      <rect width="32" height="32" fill="white" transform="translate(30 124.625)" />
    </clipPath>
    <clipPath id="clip1_101_119">
      <rect width="32" height="32" fill="white" transform="translate(30 180.625)" />
    </clipPath>
    <clipPath id="clip2_101_119">
      <rect width="32" height="32" fill="white" transform="translate(30 236.625)" />
    </clipPath>
  </defs>
      </svg>