<svg className="max-w-full h-auto" viewBox="0 0 377 316" fill="none" xmlns="http://www.w3.org/2000/svg">
  <rect x="0.5" y="0.5" width="376" height="315" rx="5.5" fill="url(#paint0_linear_101_1142)" stroke="url(#paint1_radial_101_1142)" />
  <rect x="0.5" y="0.5" width="376" height="315" rx="5.5" stroke="url(#paint2_radial_101_1142)" />
  <path fillRule="evenodd" clipRule="evenodd" d="M65 7H11C8.79086 7 7 8.79086 7 11V65H65V7ZM11 6C8.23858 6 6 8.23858 6 11V65V66H7H65H66V65V7V6H65H11ZM187 7H129V65H187V7ZM129 6H128V7V65V66H129H187H188V65V7V6H187H129ZM7 129H34.5V156.5H7V129ZM6 128H7H34.5H35.5V129V156.5V157.5H34.5H7H6V156.5V129V128ZM65 129H37.5V156.5H65V129ZM37.5 128H36.5V129V156.5V157.5H37.5H65H66V156.5V129V128H65H37.5ZM7 159.5H65V187H7V159.5ZM6 158.5H7H65H66V159.5V187V188H65H7H6V187V159.5V158.5ZM309 129H251V187H309V129ZM251 128H250V129V187V188H251H309H310V187V129V128H309H251ZM7 68H65V126H7V68ZM6 67H7H65H66V68V126V127H65H7H6V126V68V67ZM126 190H7V248H126V190ZM7 189H6V190V248V249H7H126H127V248V190V189H126H7ZM129 190H187V248H129V190ZM128 189H129H187H188V190V248V249H187H129H128V248V190V189ZM309 190H251V248H309V190ZM251 189H250V190V248V249H251H309H310V248V190V189H309H251ZM7 251H34.5V309H11C8.79086 309 7 307.209 7 305V251ZM6 250H7H34.5H35.5V251V309V310H34.5H11C8.23858 310 6 307.761 6 305V251V250ZM65 281H37.5V309H65V281ZM66 281V280V279V251V250H65H37.5H36.5V251V279V280V281V309V310H37.5H65H66V309V281ZM37.5 251H65V279H37.5V251ZM187 251H129V309H187V251ZM129 250H128V251V309V310H129H187H188V309V251V250H187H129ZM251 251H309V309H251V251ZM250 250H251H309H310V251V309V310H309H251H250V309V251V250ZM95.5 37.5H68V65H95.5V37.5ZM68 36.5H67V37.5V65V66H68H95.5H96.5V65V37.5V36.5H95.5H68ZM98.5 7H126V34.5H98.5V7ZM97.5 6H98.5H126H127V7V34.5V35.5H126H98.5H97.5V34.5V7V6ZM95.5 7H68V34.5H95.5V7ZM68 6H67V7V34.5V35.5H68H95.5H96.5V34.5V7V6H95.5H68ZM98.5 37.5H111V65H98.5V37.5ZM97.5 36.5H98.5H111H112V37.5V65V66H111H98.5H97.5V65V37.5V36.5ZM126 37.5H114V49H126V37.5ZM114 36.5H113V37.5V49V50H114H126H127V49V37.5V36.5H126H114ZM114 52H118.5V65H114V52ZM113 51H114H118.5H119.5V52V65V66H118.5H114H113V65V52V51ZM126 52H121.5V65H126V52ZM121.5 51H120.5V52V65V66H121.5H126H127V65V52V51H126H121.5ZM190 7H248V65H190V7ZM189 6H190H248H249V7V65V66H248H190H189V65V7V6ZM366 7H251V126H370V11C370 8.79086 368.209 7 366 7ZM251 6H250V7V126V127H251H370H371V126V11C371 8.23858 368.761 6 366 6H251ZM190 129H248V187H190V129ZM189 128H190H248H249V129V187V188H248H190H189V187V129V128ZM370 129H312V187H370V129ZM312 128H311V129V187V188H312H370H371V187V129V128H370H312ZM68 68H187V187H68V68ZM67 67H68H187H188V68V187V188H187H68H67V187V68V67ZM248 68H190V126H248V68ZM190 67H189V68V126V127H190H248H249V126V68V67H248H190ZM190 190H248V248H190V190ZM189 189H190H248H249V190V248V249H248H190H189V248V190V189ZM370 190H312V248H370V190ZM312 189H311V190V248V249H312H370H371V248V190V189H370H312ZM68 251H126V309H68V251ZM67 250H68H126H127V251V309V310H126H68H67V309V251V250ZM248 251H190V309H248V251ZM190 250H189V251V309V310H190H248H249V309V251V250H248H190ZM312 251H370V305C370 307.209 368.209 309 366 309H312V251ZM311 250H312H370H371V251V305C371 307.761 368.761 310 366 310H312H311V309V251V250Z" fill="url(#paint3_radial_101_1142)" />
  <defs>
    <linearGradient id="paint0_linear_101_1142" x1="-12.2525" y1="-56.9836" x2="204.116" y2="394.121" gradientUnits="userSpaceOnUse">
      <stop stopColor="#8467F3" />
      <stop offset="1" stopColor="#4B3990" stopOpacity="0" />
    </linearGradient>
    <radialGradient id="paint1_radial_101_1142" cx="0" cy="0" r="1" gradientUnits="userSpaceOnUse" gradientTransform="translate(8.7 -49.5269) rotate(63.8078) scale(407.355 457.829)">
      <stop stopColor="#B7A5FB" />
      <stop offset="1" stopColor="#624BBB" stopOpacity="0.46" />
    </radialGradient>
    <radialGradient id="paint2_radial_101_1142" cx="0" cy="0" r="1" gradientUnits="userSpaceOnUse" gradientTransform="translate(8.7 -49.5269) rotate(63.8078) scale(407.355 457.829)">
      <stop stopColor="#B7A5FB" />
      <stop offset="1" stopColor="#624BBB" stopOpacity="0.46" />
    </radialGradient>
    <radialGradient id="paint3_radial_101_1142" cx="0" cy="0" r="1" gradientUnits="userSpaceOnUse" gradientTransform="translate(59 -25) rotate(59.0624) scale(375.41 450.739)">
      <stop stopColor="#B7A5FB" stopOpacity="0.36" />
      <stop offset="1" stopColor="#D4C9FE" stopOpacity="0" />
    </radialGradient>
  </defs>
</svg>