<svg width="119" height="30" viewBox="0 0 119 30" fill="currentColor" xmlns="http://www.w3.org/2000/svg">
  <title>Square logo</title>
  <path d="M59.3642 10.0304C58.1897 10.0646 57.0696 10.5476 56.1503 11.2731C55.8215 11.5113 55.4212 11.9051 55.2047 12.2618C54.7338 12.9171 54.3344 13.6171 54.1089 14.3993C53.4568 16.5845 53.5726 19.0588 54.6159 21.099C55.0221 21.8246 55.4572 22.454 56.0993 22.9917C56.6201 23.3209 57.2254 23.7543 57.8709 23.9247C59.6359 24.4932 61.6811 24.2011 63.1563 23.0434C63.5254 22.8107 63.8618 22.3629 64.1596 21.9907C64.138 21.8928 64.4421 21.4918 64.4657 21.8042C64.4646 24.0257 64.4668 26.2674 64.4657 28.4972C65.1289 28.4972 65.792 28.4972 66.4552 28.4972C66.4552 22.4451 66.4552 16.3931 66.4552 10.3411C65.792 10.3411 65.1289 10.3411 64.4657 10.3411C64.4657 11.1465 64.4657 11.9518 64.4657 12.7573C64.1094 12.2275 63.7946 11.6467 63.2923 11.3075C62.1942 10.4133 60.7771 9.91807 59.3642 10.0304ZM60.0614 11.8598C60.9748 11.8574 62.0112 12.1191 62.6631 12.7055C63.183 13.133 63.572 13.5846 63.8528 14.2127C64.5968 15.8357 64.6629 17.7656 64.082 19.4512C63.8212 20.2665 63.3199 20.9552 62.6631 21.4901C61.6964 22.3294 60.2961 22.4698 59.0733 22.2534C58.2639 22.1124 57.5769 21.6423 57.057 21.0172C56.0888 19.9383 55.8127 18.3773 55.8304 16.9478C55.8792 15.7071 56.114 14.4055 56.8645 13.3958C57.3699 12.7617 58.0307 12.2135 58.8404 12.0193C59.2337 11.8903 59.6495 11.848 60.0614 11.8598Z"></path>
  <path d="M44.7489 4.83514C43.2352 4.89665 41.694 5.29948 40.4807 6.25035C40.2317 6.41815 39.9564 6.72104 39.7841 6.98429C39.0439 7.93335 38.6653 9.16681 38.7834 10.3785C38.8258 11.2601 39.1464 12.1172 39.7325 12.7741C39.9041 13.0365 40.2354 13.3345 40.5048 13.5066C42.0714 14.7423 44.1086 14.9718 45.9575 15.5337C47.112 15.8905 48.4486 16.1326 49.2042 17.175C49.8441 17.9682 49.8262 19.1602 49.4763 20.0918C49.1769 20.8548 48.5236 21.4003 47.8268 21.7831C46.3675 22.4238 44.6773 22.3822 43.1677 21.9531C42.0304 21.5998 41.0216 20.914 40.2832 19.9628C40.0944 19.6503 39.9264 19.4491 39.631 19.8101C39.183 20.1284 38.7351 20.4466 38.2871 20.7649C38.6468 21.3383 39.0717 21.8888 39.5794 22.2836C40.448 22.9578 41.39 23.5541 42.4583 23.8338C44.4572 24.4383 46.6761 24.3754 48.609 23.5608C49.3892 23.1472 50.1343 22.7294 50.6862 22.0356C51.4 21.1794 51.8586 19.9783 51.8807 18.808C51.9392 17.6843 51.5819 16.5447 50.8537 15.6908C50.7148 15.4688 50.464 15.2417 50.2235 15.0997C49.8596 14.7718 49.4479 14.5661 49.0019 14.3211C47.0128 13.3113 44.7445 13.0933 42.7127 12.2107C42.0904 11.8968 41.4674 11.462 41.1439 10.8239C40.6601 9.73436 41.0371 8.35527 41.9844 7.66419C42.812 6.99114 43.9481 6.79313 44.9972 6.78537C46.8188 6.76648 48.6658 7.57272 49.7654 9.06348C50.3095 8.64931 50.8537 8.23513 51.3978 7.82088C50.9205 7.14638 50.3238 6.62391 49.6707 6.17715C48.229 5.2148 46.4733 4.74499 44.7489 4.83514Z"></path>
  <path d="M69.813 19.1428C69.8152 20.3287 70.0523 21.5609 70.7652 22.5254C71.077 23.0398 71.6919 23.4487 72.2384 23.7514C73.6664 24.4221 75.3808 24.3195 76.7948 23.6621C77.4385 23.3083 78.0574 22.8682 78.4687 22.3011C78.6569 22.1247 78.8692 21.6236 78.9784 21.5969C78.9784 22.3609 78.9784 23.1249 78.9784 23.8889C79.6414 23.8889 80.3053 23.8889 80.9683 23.8889C80.9683 19.3729 80.9683 14.8569 80.9683 10.3408C80.3053 10.3408 79.6414 10.3408 78.9784 10.3408C78.9644 13.1078 79.0109 15.8764 78.9443 18.6422C78.784 19.7559 78.2851 20.8315 77.3804 21.5072C76.2831 22.3556 74.6935 22.5617 73.401 22.0422C72.4957 21.6293 71.98 20.6211 71.9154 19.6307C71.7596 17.8983 71.8696 16.1546 71.8365 14.4174C71.8365 13.0585 71.8365 11.6997 71.8365 10.3408C71.162 10.3408 70.4875 10.3408 69.813 10.3408C69.813 13.2748 69.813 16.2088 69.813 19.1428Z"></path>
  <path d="M89.1379 10.03C87.4113 10.087 85.7002 10.6568 84.292 11.6696C84.5809 12.1644 84.8699 12.6591 85.1588 13.1538C86.3315 12.2406 87.8404 11.8671 89.2982 11.8077C90.3602 11.7929 91.6104 11.9991 92.2208 12.9552C92.5701 13.6039 92.4903 14.5352 91.8931 15.0005C91.3927 15.488 90.543 15.6885 89.8187 15.829C88.4431 16.0854 87.0008 16.1405 85.7103 16.7314C85.1301 17.0072 84.5918 17.4126 84.2579 17.9345C83.5445 18.8319 83.4942 20.0778 83.7064 21.1655C83.8273 21.7793 84.1371 22.3149 84.5128 22.8015C84.7103 23.0992 85.1015 23.2985 85.4314 23.5435C86.6747 24.2645 88.2014 24.3232 89.584 24.0518C90.3989 23.8634 91.1503 23.4393 91.7366 22.9006C92.0434 22.6989 92.103 22.361 92.3695 22.1629C92.6243 22.2332 92.426 22.6488 92.488 22.8532C92.488 23.1984 92.488 23.5435 92.488 23.8887C93.1286 23.8887 93.7692 23.8887 94.4098 23.8887C94.3958 20.3739 94.4423 16.8575 94.3757 13.3437C94.22 12.3795 93.715 11.3829 92.8854 10.9135C91.7994 10.1911 90.4222 9.95622 89.1379 10.03ZM92.4198 16.4157C92.3648 17.83 92.646 19.3576 91.9497 20.6566C91.3765 21.7113 90.2393 22.3341 89.0666 22.4263C88.0279 22.5141 86.8164 22.3816 86.1115 21.5243C85.6104 20.9026 85.5143 19.9582 85.7575 19.1949C85.9442 18.5327 86.5283 18.1231 87.1487 17.9156C88.6135 17.405 90.2099 17.4016 91.6545 16.83C91.9411 16.6686 92.2045 16.5162 92.4198 16.295C92.4198 16.3352 92.4198 16.3754 92.4198 16.4157Z"></path>
  <path d="M103.584 10.0821C102.522 10.1661 101.483 10.658 100.747 11.363C100.424 11.7238 100.122 12.1761 99.8422 12.6191C99.8422 11.8597 99.8422 11.1004 99.8422 10.341C99.1792 10.341 98.5161 10.341 97.8523 10.341C97.8523 14.857 97.8523 19.373 97.8523 23.889C98.5161 23.889 99.1792 23.889 99.8422 23.889C99.8608 21.2478 99.8004 18.6036 99.8841 15.9644C100.038 14.6864 100.565 13.3854 101.636 12.6364C102.592 11.9065 103.961 11.8506 105.063 12.2912C105.299 12.1689 105.204 11.7546 105.329 11.5204C105.416 11.1847 105.503 10.8492 105.59 10.5135C104.989 10.1607 104.27 10.0405 103.584 10.0821Z"></path>
  <path d="M112.281 10.0298C111.117 10.05 109.996 10.4706 109.033 11.1171C108.839 11.2666 108.608 11.4388 108.399 11.6221C107.901 12.1113 107.525 12.7134 107.162 13.3434C106.178 15.3137 106.067 17.6791 106.686 19.7822C106.957 20.746 107.531 21.6403 108.144 22.3573C108.395 22.6183 108.669 22.8344 108.913 23.0083C109.928 23.751 111.16 24.1513 112.41 24.1901C114.072 24.2841 115.814 23.8857 117.111 22.7856C117.519 22.5056 117.855 22.1727 118.181 21.7657C117.734 21.3514 117.286 20.9372 116.838 20.523C116.147 21.4225 115.142 22.0458 114.03 22.2432C112.49 22.546 110.702 22.2136 109.636 20.9799C108.741 20.1058 108.449 18.7676 108.421 17.5372C108.609 17.2258 109.082 17.4871 109.393 17.3992C112.498 17.3992 115.604 17.3992 118.708 17.3992C118.933 15.5641 118.519 13.6163 117.372 12.156C117.097 11.7237 116.652 11.4106 116.226 11.0998C115.102 10.2878 113.65 9.9445 112.281 10.0298ZM112.995 11.7557C114.322 11.8364 115.607 12.5922 116.223 13.7912C116.515 14.4303 116.687 15.1382 116.702 15.8459C113.948 15.8459 111.192 15.8459 108.438 15.8459C108.566 14.8534 108.8 13.7856 109.526 13.0673C109.656 12.8402 110.017 12.6175 110.229 12.402C111.038 11.8667 112.04 11.6873 112.995 11.7557Z"></path>
  <path d="M24.1242 0H4.82536C2.17214 0 0 2.2037 0 4.89738V24.4844C0 27.1767 2.17214 29.38 4.82536 29.38H24.1242C26.7775 29.38 28.9497 27.1767 28.9497 24.4844V4.89738C28.9497 2.2037 26.7775 0 24.1242 0ZM23.6857 22.4825C23.6857 23.3383 22.995 24.037 22.151 24.037H6.79733C5.95372 24.037 5.2631 23.3383 5.2631 22.4825V6.90007C5.2631 6.04387 5.95372 5.34295 6.79733 5.34295H22.151C22.995 5.34295 23.6857 6.04387 23.6857 6.90007V22.4825ZM18.4234 17.8059C18.4234 18.2973 18.0286 18.6967 17.5471 18.6967H11.4068C10.924 18.6967 10.5305 18.2973 10.5305 17.8059V11.5745C10.5305 11.0849 10.924 10.6846 11.4068 10.6846H17.5471C18.0286 10.6846 18.4234 11.0849 18.4234 11.5745V17.8059Z"></path>
</svg>